<?xml version="1.0" standalone="no"?>
<!DOCTYPE svg PUBLIC "-//W3C//DTD SVG 20010904//EN"
 "http://www.w3.org/TR/2001/REC-SVG-20010904/DTD/svg10.dtd">
<svg version="1.0" xmlns="http://www.w3.org/2000/svg"
 width="792.000000pt" height="288.000000pt" viewBox="0 0 792.000000 288.000000"
 preserveAspectRatio="xMidYMid meet">

<g transform="translate(0.000000,288.000000) scale(0.100000,-0.100000)"
fill="#000000" stroke="none">
<path d="M1215 2145 c-238 -52 -396 -204 -467 -450 -20 -69 -23 -102 -22 -240
0 -185 13 -253 76 -383 73 -155 212 -261 388 -298 93 -20 300 -14 408 11 l72
17 0 44 c0 40 -2 45 -18 39 -114 -36 -345 -46 -447 -20 -126 33 -234 114 -295
220 -118 207 -114 562 9 754 71 109 195 196 319 222 31 6 104 9 166 7 104 -4
172 -20 268 -62 13 -6 20 1 33 30 9 21 14 43 11 49 -5 15 -122 51 -206 65 -87
13 -221 11 -295 -5z"/>
<path d="M3490 1888 l0 -253 -45 52 c-31 35 -68 63 -113 85 -64 32 -71 33
-182 33 -97 -1 -125 -5 -175 -24 -109 -44 -192 -150 -232 -301 -24 -90 -24
-320 0 -409 59 -218 213 -324 448 -308 104 7 189 46 252 117 50 56 52 55 63
-39 l7 -61 33 0 34 0 0 680 0 680 -45 0 -45 0 0 -252z m-172 -199 c99 -48 147
-139 162 -311 15 -179 -12 -346 -69 -426 -76 -104 -260 -142 -402 -81 -117 51
-177 167 -186 365 -14 285 80 451 277 488 58 10 155 -5 218 -35z"/>
<path d="M4680 1460 l0 -680 340 0 340 0 0 45 0 45 -295 0 -295 0 0 635 0 635
-45 0 -45 0 0 -680z"/>
<path d="M6340 1459 l0 -680 32 3 c31 3 33 6 40 53 17 105 14 103 59 51 74
-83 174 -126 299 -126 167 0 298 76 368 215 78 156 82 449 8 612 -37 78 -69
118 -129 158 -74 49 -160 69 -274 63 -118 -7 -200 -43 -266 -119 l-44 -51 5
251 5 251 -52 0 -51 0 0 -681z m570 240 c127 -56 189 -193 190 -415 0 -167
-45 -304 -122 -370 -106 -89 -299 -96 -413 -15 -49 35 -101 131 -116 216 -15
82 -6 336 14 400 48 152 162 222 337 209 35 -3 85 -14 110 -25z"/>
<path d="M2145 1851 c-3 -5 -1 -12 5 -16 14 -9 52 4 45 16 -8 12 -42 12 -50 0z"/>
<path d="M1930 1830 c0 -5 7 -7 15 -4 8 4 15 8 15 10 0 2 -7 4 -15 4 -8 0 -15
-4 -15 -10z"/>
<path d="M2024 1809 c-3 -6 -2 -15 4 -21 12 -12 55 8 47 23 -8 12 -42 12 -51
-2z"/>
<path d="M4020 1795 c-71 -14 -177 -51 -185 -65 -3 -5 2 -24 11 -43 l16 -34
75 29 c105 41 214 55 289 39 114 -26 174 -121 174 -276 l0 -72 -152 -7 c-234
-11 -346 -41 -432 -116 -54 -48 -78 -102 -84 -186 -12 -180 91 -290 280 -301
146 -9 269 40 352 140 l33 40 7 -49 c17 -117 15 -114 52 -114 l34 0 0 373 c0
402 -5 447 -53 529 -63 108 -225 152 -417 113z m377 -602 c-7 -120 -26 -178
-79 -238 -50 -57 -116 -91 -205 -106 -127 -21 -233 22 -269 108 -17 39 -18
131 -3 170 40 108 184 158 468 162 l94 1 -6 -97z"/>
<path d="M5735 1803 c-55 -8 -144 -33 -189 -53 l-45 -19 16 -41 c9 -22 21 -39
27 -36 188 84 333 97 430 37 18 -11 46 -44 61 -73 25 -46 30 -66 33 -149 l4
-96 -153 -7 c-249 -12 -357 -43 -443 -129 -148 -149 -69 -422 134 -466 163
-35 319 12 419 125 44 50 43 51 56 -58 7 -58 7 -58 41 -58 l34 0 0 384 c0 360
-1 388 -21 451 -25 82 -81 143 -155 169 -49 18 -192 29 -249 19z m333 -615
c-6 -132 -30 -189 -104 -257 -68 -62 -131 -85 -239 -85 -115 0 -175 34 -210
117 -33 80 -9 186 54 240 61 51 214 83 410 86 l94 1 -5 -102z"/>
<path d="M2142 1778 c-20 -20 -14 -47 13 -54 31 -8 57 12 53 40 -4 25 -46 34
-66 14z"/>
<path d="M1820 1769 c0 -5 5 -7 10 -4 6 3 10 8 10 11 0 2 -4 4 -10 4 -5 0 -10
-5 -10 -11z"/>
<path d="M1902 1748 c-18 -18 -14 -28 12 -28 20 0 36 16 36 36 0 9 -37 3 -48
-8z"/>
<path d="M2004 1706 c-13 -21 -14 -29 -4 -41 17 -21 43 -19 64 4 25 27 17 55
-16 59 -20 2 -31 -4 -44 -22z"/>
<path d="M1727 1704 c-4 -4 -7 -14 -7 -23 0 -11 3 -12 11 -4 6 6 10 16 7 23
-2 6 -7 8 -11 4z"/>
<path d="M1796 1675 c-9 -9 -16 -23 -16 -31 0 -21 28 -17 41 7 15 29 -3 46
-25 24z"/>
<path d="M2136 1664 c-19 -18 -21 -65 -4 -82 20 -20 55 -13 77 14 12 15 21 33
21 40 0 20 -29 44 -55 44 -13 0 -31 -7 -39 -16z"/>
<path d="M1882 1638 c-18 -18 -15 -68 4 -68 32 0 54 20 54 50 0 25 -4 30 -23
30 -13 0 -28 -5 -35 -12z"/>
<path d="M1671 1594 c0 -11 3 -14 6 -6 3 7 2 16 -1 19 -3 4 -6 -2 -5 -13z"/>
<path d="M2020 1603 c-25 -9 -40 -35 -40 -70 0 -26 5 -34 25 -39 25 -6 75 17
75 35 0 5 3 16 6 24 3 9 -4 25 -15 36 -22 22 -26 23 -51 14z"/>
<path d="M1712 1588 c-14 -14 -16 -48 -2 -48 10 0 26 48 18 55 -2 3 -10 -1
-16 -7z"/>
<path d="M1775 1554 c-18 -18 -17 -65 1 -71 19 -6 44 27 44 58 0 33 -19 38
-45 13z"/>
<path d="M1866 1501 c-11 -12 -16 -31 -14 -53 3 -30 6 -33 38 -33 28 0 37 5
48 29 29 58 -29 104 -72 57z"/>
<path d="M1700 1439 c0 -17 4 -28 10 -24 6 3 10 17 10 31 0 13 -4 24 -10 24
-5 0 -10 -14 -10 -31z"/>
<path d="M1760 1401 c-14 -27 -13 -46 5 -61 22 -19 45 5 45 46 0 27 -4 34 -20
34 -10 0 -24 -9 -30 -19z"/>
<path d="M1860 1345 c-17 -20 -17 -69 0 -89 32 -40 83 -1 78 61 -3 34 -6 38
-34 41 -19 2 -36 -3 -44 -13z"/>
<path d="M1697 1324 c-11 -11 -8 -44 3 -44 15 0 24 30 13 41 -5 5 -12 6 -16 3z"/>
<path d="M1755 1247 c-7 -24 8 -67 23 -67 21 1 33 20 30 51 -2 26 -8 35 -25
37 -17 2 -24 -3 -28 -21z"/>
<path d="M1700 1171 c0 -17 5 -31 10 -31 6 0 10 11 10 24 0 14 -4 28 -10 31
-6 4 -10 -7 -10 -24z"/>
</g>
</svg>
