<?xml version="1.0" encoding="UTF-8" standalone="no"?>
<svg
   xmlns:dc="http://purl.org/dc/elements/1.1/"
   xmlns:cc="http://creativecommons.org/ns#"
   xmlns:rdf="http://www.w3.org/1999/02/22-rdf-syntax-ns#"
   xmlns:svg="http://www.w3.org/2000/svg"
   xmlns="http://www.w3.org/2000/svg"
   xmlns:sodipodi="http://sodipodi.sourceforge.net/DTD/sodipodi-0.dtd"
   xmlns:inkscape="http://www.inkscape.org/namespaces/inkscape"
   version="1.1"
   id="svg2"
   xml:space="preserve"
   width="285.86667"
   height="431.26666"
   viewBox="0 0 285.86667 431.26666"
   sodipodi:docname="Block_S_2_color.eps"><metadata
     id="metadata8"><rdf:RDF><cc:Work
         rdf:about=""><dc:format>image/svg+xml</dc:format><dc:type
           rdf:resource="http://purl.org/dc/dcmitype/StillImage" /></cc:Work></rdf:RDF></metadata><defs
     id="defs6" /><sodipodi:namedview
     pagecolor="#ffffff"
     bordercolor="#666666"
     borderopacity="1"
     objecttolerance="10"
     gridtolerance="10"
     guidetolerance="10"
     inkscape:pageopacity="0"
     inkscape:pageshadow="2"
     inkscape:window-width="640"
     inkscape:window-height="480"
     id="namedview4" /><g
     id="g10"
     inkscape:groupmode="layer"
     inkscape:label="ink_ext_XXXXXX"
     transform="matrix(1.3333333,0,0,-1.3333333,0,431.26667)"><g
       id="g12"
       transform="scale(0.1)"><path
         d="M 463.129,3234.5 0,2789.54 V 1594.38 l 402.57,-402.99 h 184.633 c -4.527,-12.11 -10.402,-30.88 2.371,-49.25 13.969,-20.2 38.086,-20.2 47.117,-20.2 10.997,0 26.024,1.29 49.262,4.31 l 0.055,-0.04 c 0,0 9.691,-8.24 -19.789,-17.7 v -0.07 c -24.168,-8.45 -45.278,-22.29 -52.403,-46.16 -0.476,-1.68 -0.648,-3.32 -1.015,-5.04 H 0.234375 L 0,446.379 463,0 h 1217.87 l 463.08,445.719 V 1590.54 l -402.64,402.44 h -341.46 c -0.18,0.06 -0.32,0.18 -0.48,0.24 -15.05,8.91 -30.54,18 -44.68,27.26 l -5.11,3.22 -1.02,0.35 c -7.5,4.64 -15.57,10.52 -24.45,17.9 -7.58,6.06 -13.93,11.88 -18.65,17.22 l -1.27,1.31 c -9.06,9.27 -16.77,18.12 -22.97,25.91 53.38,-15.21 111.25,-18.89 139.05,-19.85 h 3.5 c 1.86,0 3.63,-0.06 5.24,-0.06 l 2.5,-0.23 c 6.64,-0.54 11.83,-1.66 15.16,-2.62 3.56,-1.48 6.8,-2.97 9.63,-4.28 l 14.5,-5.34 c 3.42,-0.71 7.01,-1.08 10.61,-1.08 21.05,0 40.47,12.48 49.44,31.73 3.13,6.66 7.47,19.97 4.03,37.27 l 609.07,-0.31 v 667.2"
         style="fill:#ffffff;fill-opacity:1;fill-rule:nonzero;stroke:none"
         id="path14" /><path
         d="M 952.039,1246.61 H 425.453 L 55.2617,1617.27 v 1148.7 l 430.1403,413.3 H 1658.53 l 430.21,-413.99 v -588.4 h -938.95 v -239.17 h 568.66 l 370.29,-370.07 V 469.211 L 1658.53,55.2813 H 485.344 L 55.2617,469.91 l 0.2344,531.81 h 606.2379 289.02 l 1.285,244.89"
         style="fill:#ffffff;fill-opacity:1;fill-rule:nonzero;stroke:none"
         id="path16" /><path
         d="M 941.938,1191.39 H 402.57 L 0,1594.38 V 2789.54 L 463.129,3234.5 H 1680.87 l 463.08,-445.68 v -667.2 h -994.16 v -128.64 h 591.52 l 402.64,-402.44 V 445.719 L 1680.87,0 H 463 L 0,446.379 0.234375,1057.24 H 951.047 l -9.109,134.15"
         style="fill:#ffffff;fill-opacity:1;fill-rule:nonzero;stroke:none"
         id="path18" /><path
         d="m 1239.52,1559.13 c 16.16,-18.15 105.88,-76.83 137.25,-91.26 68.22,-31.13 103.63,-81.63 124.73,-145.8 20.02,-60.61 -1.72,-47.31 -18,-39.83 -16.23,7.5 -20.85,23.77 -61.16,22.95 -40.38,-0.96 -63.16,1.95 -91.91,24.19 -7.47,5.77 -13.65,12.42 -18.92,18 -0.33,0.11 -0.52,0.3 -0.93,0.59 -27.57,20.62 -22.1,-48.14 -16.45,-59.42 19.9,-39.47 33.46,-23.35 148.48,-83.5 54.67,-28.61 67.52,-67.08 73.28,-83.17 9.2,-26.15 18.75,-33.58 -64.89,-22.11 -26.75,3.63 -74.94,20.38 -97.75,35.54 -22.12,14.91 -66.31,2.83 -62.32,-29.62 20.58,-49.54 73.6,-80.61 124.28,-86.85 44.23,-5.45 64.3,-14.98 72.33,-24.719 24.35,-27.141 -20.58,-66.801 -20.58,-66.801 -22.45,-25.48 1.8,-55.601 18.39,-64.449 26.95,-13.441 79.18,-44.172 96.73,-88.422 90.61,-229.32 2.9,-163.711 -40.18,-137.328 -43.07,26.399 -125.19,93.75 -200.07,87.828 -74.87,-5.828 -99.83,-9.699 -144.16,24.871 -44.44,34.61 -39.99,-21.422 -39.99,-21.422 0,0 0,-68.039 0,-276.617 2.69,-62.019 14.28,-121.043 64.42,-171.191 41.12,-41.129 72.37,-33.379 130.43,-102.789 26.73,-32.031 113.95,-66.551 172.25,-67.199 l 111.54,-0.071 397.17,382.188 V 1544.72 l -337.94,337.8 -219.97,0.06 c 18.62,-30.13 29.32,-69.47 37.13,-126.98 0.26,-34.58 -46.36,-17.77 -61.41,-8.8 -10.6,7.14 -24.36,13.79 -42.51,17.89 -33.79,8.02 -114.73,42.78 -136.76,50.63 -22.54,8.01 -38.93,-8.33 -41.53,-14.44 l 0.04,-0.07 c -5.63,-10.46 6.13,-31.66 6.13,-31.66 31.83,-70.6 90.19,-66.91 154.55,-111.95 88.22,-61.92 40.95,-74.88 22.83,-65.55 -18.04,9.34 -47.61,3.53 -47.61,3.53 -71.31,-19.21 -92.71,9.78 -134.4,20.72 -41.68,10.99 -7.49,-39.82 7.48,-56.77"
         style="fill:#a80c30;fill-opacity:1;fill-rule:nonzero;stroke:none"
         id="path20" /><path
         d="m 836.516,264.422 c 27.519,42.629 76.07,78.808 106.902,109.617 32.566,32.5 38.402,106.461 39.398,186.859 0,123.922 0,167.5 0,167.5 l 0.239,-1.726 c 0,16.758 0,30.047 0,40.058 l 0.054,0.051 v 26.688 c 0.067,1.043 0.067,3.422 0,6.281 v 72.199 c 0,16.699 -19.726,18.02 -62.918,-27.687 -43.257,-45.641 -115.996,-42 -158.07,-45.641 -41.887,-3.75 -162.863,-65.48 -197.461,-109.851 -21.437,-27.649 -51.808,-4.938 -39.437,49.3 h -0.293 c 5.82,24.602 16.578,57.391 33.804,100.899 24.008,60.601 113.375,95.961 113.375,95.961 0,0 9.204,4.031 17.293,11.89 h -75.765 c 0,-0.07 -0.059,-0.07 -0.059,-0.07 H 110.707 L 110.523,493.461 507.566,111.18 635.273,111.109 c 120.028,5.84 164.879,96.993 201.243,153.313"
         style="fill:#a80c30;fill-opacity:1;fill-rule:nonzero;stroke:none"
         id="path22" /><path
         d="M 507.566,3124.03 110.523,2742.46 V 1640.09 l 337.864,-338.28 h 317.304 c 54.438,23.31 65.84,21.37 80.864,51.2 2.269,4.54 4.465,18.17 4.59,31.68 0.714,3.82 7.605,44.05 -12.364,34.16 -33.933,-16.76 -102.328,27.28 -153.668,1.27 -51.265,-26.03 -13.777,34.23 -6.535,44.67 0,0 27.461,35.51 68.813,58.96 1.55,0.81 2.847,1.72 4.039,2.54 4.05,2.14 8.203,4.18 12.484,6.1 31.363,14.4 121.149,73.04 137.266,91.29 9.566,10.69 26.613,34.93 27.445,48.49 2.789,11.64 4.992,30.19 -6.422,37.49 -17.105,10.99 -30.773,-10.74 -57.566,-22.4 -26.809,-11.64 -46.891,-16.46 -70.774,-17.24 -22.879,-0.76 -44.808,7.78 -58.535,5.72 -13.844,-2.16 -21.863,8.07 3.395,32.92 11.398,11.28 16.281,16.29 21.629,20.13 59.961,37.67 113.675,38.22 143.671,104.82 0,0 23.477,60.08 -21.628,34.52 -24.836,-14.14 -38.266,-34.52 -109.102,-34.52 -70.703,0 -98.281,-32.62 -110.273,-47 0,0 -47.954,-65.96 -36.016,26.38 12.062,92.34 30.191,139.22 74.523,175.06 38.141,30.9 133.036,72.37 167.207,117.96 17.645,17.17 61.672,66.48 36,108.49 -10.687,17.52 -37.07,-28.11 -64.293,-33.92 h -0.05 c -30.84,-8.16 -70.364,-18.07 -100.489,-12.13 -37.312,7.43 -61.144,-6.54 -75.043,-12.83 -13.843,-6.19 -40.285,13.48 -8.082,49.56 43.149,48.3 147.418,111.41 217.664,149.08 9.625,3.86 33.161,14.03 54.715,27.45 0.426,0.24 0.903,0.43 1.25,0.59 5.344,2.32 13.188,7.08 17.707,12.84 15.387,12.54 25.789,26.74 22.231,41 -3.27,13.2 -9.633,17.47 -30.297,19.61 -16.527,1.66 -43.563,-17.11 -66.5,-15.32 -35.18,2.79 -86.574,-5.12 -69.52,19.3 15.864,22.82 41.891,37.38 49.2,41.29 14.496,6.54 33.683,14.8 62.269,27.46 44.68,19.66 38.438,69.66 21.098,71.43 -27.039,2.79 -99.715,-20.03 -48.543,37.32 0,0 24.418,24 48.726,39.59 19.375,10.98 35.289,15.26 54.368,22.01 12.115,4.24 43.135,31.46 -30.844,34.25 0,0 -41.531,-1.03 -33.453,17.59 6.422,12.43 42.715,34.88 42.715,34.88 0,0 29.355,19.61 41.187,31.42 11.46,10.68 19.49,19.38 18.96,29.04 -0.54,11.12 -29.6,24.7 -41.956,40.1 -8.856,11.09 -1.379,14.98 3.633,16.38 2.605,0.48 5.691,0.84 9.613,0.81 29.95,-0.06 38.63,29.32 56.03,106.06 5.3,23.11 5.65,27.98 13.31,28.05 v 0 c 0.06,0 0.06,0 0.06,0 v 0 c 0.6,0 1.07,-0.13 1.55,-0.13 0,0 7.48,-38.98 18.29,-82.35 9.04,-23.89 19.32,-34.08 36.93,-34.02 3.79,0 6.88,-0.3 9.56,-0.92 4.85,-1.28 12.53,-5.17 3.61,-16.32 -6.77,-8.43 -27.04,-22.27 -28.46,-30.74 -6.01,-23.92 17.1,-32.44 40.76,-34.1 33.46,-2.31 19.51,-22.67 -16.52,-49 -34.94,-25.48 54.24,-79.68 54.24,-79.68 50.87,-38.58 14.58,-48.62 4.23,-54.02 -10.33,-5.34 -38.85,-22.51 -10.15,-33.49 28.71,-10.84 68.25,-49.88 68.25,-49.88 51.13,-57.3 -21.54,-34.54 -48.52,-37.33 -17.35,-1.78 -23.59,-51.76 21.08,-71.48 68.09,-30.13 83.14,-35.24 107.31,-52.82 44.87,-32.74 21.05,-60.44 -35.04,-50.69 0,0 -36.03,8.86 -61.26,4.04 -15.64,-3.03 -26.58,-6.53 -33.95,-10.22 -3.85,-5.76 -12.83,-28.52 65.35,-52.17 37.46,-11.29 83.69,-38.98 124.81,-70.6 l 641.02,0.72 v 509.6 l -397.17,382.22 H 507.566"
         style="fill:#a80c30;fill-opacity:1;fill-rule:nonzero;stroke:none"
         id="path24" /><path
         d="m 2088.74,2176.88 -634.67,0.07 c 13.32,-13.8 24.43,-27.04 31.97,-38.81 28.47,-34.22 3.75,-52.76 -9.84,-47.07 0,0 -10.51,5.01 -17.3,7.62 -6.35,2.03 -33.56,5.06 -37.45,4.99 -33.68,1.07 -124.6,6.95 -179.79,38.27 -21.74,12.3 -23.95,-17.36 -14.4,-40.76 5.14,-12.6 24.51,-40.35 50.46,-66.73 6.54,-7.25 14.48,-14.5 23.43,-21.51 10.36,-8.86 21.44,-16.88 32.68,-23.29 0.11,-0.06 0.15,-0.06 0.22,-0.18 29.29,-18.85 61.45,-36.32 85.27,-51.81 l 299.13,0.04 370.29,-370.07 V 469.211 L 1658.53,55.2813 H 485.344 L 55.2617,469.91 l 0.2344,532.1 H 631.348 c 0,-0.06 0.054,-0.06 0.117,-0.11 h 56.562 c -6.531,7.61 -15.75,15.76 -28.582,24.5 0,0 -50.203,42.53 66.082,56.91 50.688,6.24 103.637,37.32 124.305,86.87 3.926,32.45 -40.281,44.59 -62.383,29.59 -22.695,-15.16 -71.008,-31.89 -97.691,-35.55 -83.66,-11.46 -74.16,-4.01 -64.891,22.13 4.281,12.06 12.539,36.59 39.344,60.19 l -238.758,0.07 -370.1913,370.66 v 1148.7 l 430.1403,413.3 H 1658.53 l 430.21,-413.99 z m 55.21,611.94 -463.08,445.68 H 463.129 L 0,2789.54 V 1594.38 l 402.57,-402.99 h 184.633 c -4.527,-12.11 -10.402,-30.88 2.371,-49.25 13.969,-20.2 38.086,-20.2 47.117,-20.2 10.997,0 26.024,1.29 49.262,4.31 l 0.055,-0.04 c 0,0 9.691,-8.24 -19.789,-17.7 v -0.07 c -24.168,-8.45 -45.278,-22.29 -52.403,-46.16 -0.476,-1.68 -0.648,-3.32 -1.015,-5.04 H 0.234375 L 0,446.379 463,0 h 1217.87 l 463.08,445.719 V 1590.54 l -402.64,402.44 h -341.46 c -0.18,0.06 -0.32,0.18 -0.48,0.24 -15.05,8.91 -30.54,18 -44.68,27.26 l -5.11,3.22 -1.02,0.35 c -7.5,4.64 -15.57,10.52 -24.45,17.9 -7.58,6.06 -13.93,11.88 -18.65,17.22 l -1.27,1.31 c -9.06,9.27 -16.77,18.12 -22.97,25.91 53.38,-15.21 111.25,-18.89 139.05,-19.85 h 3.5 c 1.86,0 3.63,-0.06 5.24,-0.06 l 2.5,-0.23 c 6.64,-0.54 11.83,-1.66 15.16,-2.62 3.56,-1.48 6.8,-2.97 9.63,-4.28 l 14.5,-5.34 c 3.42,-0.71 7.01,-1.08 10.61,-1.08 21.05,0 40.47,12.48 49.44,31.73 3.13,6.66 7.47,19.97 4.03,37.27 l 609.07,-0.31 v 667.2"
         style="fill:#a80c30;fill-opacity:1;fill-rule:nonzero;stroke:none"
         id="path26" /><path
         d="m 1636.32,94.7383 -111.4,0.0625 c -55.97,0.6406 -142.69,38.4372 -168.79,69.6872 -34.7,41.481 -60.57,56.141 -83.41,69.09 -15.86,8.992 -30.84,17.481 -47.29,34.004 -51.29,51.34 -60.67,111.117 -63.12,167.93 l -0.02,292.769 c -0.37,4.969 -0.13,19.18 5.4,25.199 1.61,1.758 3.59,2.579 6.11,2.579 3.63,0 10.21,-1.77 21.18,-10.329 28.44,-22.171 49.58,-29.64 83.81,-29.64 14.8,0 31.77,1.289 53.2,3.031 l 10.3,0.77 c 59.85,4.918 124.51,-38.641 170.86,-69.809 9.89,-6.66 18.74,-12.652 26.48,-17.363 l 7.86,-4.887 c 17.74,-11.141 39.87,-25.012 56.14,-25.012 7.5,0 13.42,3 17.3,8.629 8.24,12.11 13.61,42.301 -34.53,164.18 -17.84,45.019 -69.62,76.25 -98.83,90.742 -10.01,5.418 -22.02,18.598 -24.53,32.5 -1.66,9.098 0.85,17.481 7.06,24.551 1.13,0.969 27.84,24.898 29.24,49.617 0.55,8.91 -2.26,16.902 -8.17,23.512 -10.53,12.709 -35.15,21.329 -75.3,26.329 -44.78,5.51 -99.25,33.45 -120.39,83.48 -0.77,7.18 1.22,13.43 5.75,18.53 6.36,7.2 17.62,11.74 29.32,11.74 7.75,0 14.95,-1.98 20.25,-5.59 24.24,-16.11 73.45,-32.75 99.66,-36.26 26.97,-3.68 42.99,-5.3 53.7,-5.3 11.28,0 17.36,1.87 20.38,6.25 3.82,5.47 1.18,12.52 -2.16,21.45 -0.68,1.77 -1.38,3.67 -2.42,6.67 -5.98,16.68 -19.91,55.83 -75.15,84.76 -46.79,24.5 -77.23,36.57 -97.41,44.53 -29.98,11.88 -38.04,15.01 -49.14,36.96 -3.63,7.3 -7.01,42.89 -0.02,54.26 1.52,2.41 2.76,2.41 3.34,2.41 0.93,0 2.94,-0.41 6.62,-3.14 l 0.57,-0.36 c 5.11,-5.45 11.41,-12.17 18.95,-18 30.75,-23.72 55.13,-26.01 94.8,-25.14 l 2.84,0.07 c 25.08,0 34.36,-7.2 43.3,-14.08 3.91,-3.03 7.92,-6.15 13.03,-8.44 l 2.74,-1.31 c 6.07,-2.84 12.36,-5.81 17.82,-5.81 4.93,0 7.7,2.38 9.15,4.37 3.54,4.88 5.65,14.4 -5.47,48.1 -23.9,72.6 -64.3,119.83 -127.16,148.54 -30.78,14.14 -119.84,72.19 -135.74,90.15 -14.4,16.25 -29.13,41.71 -25.88,48.9 0.2,0.41 0.79,1.76 5,1.76 2.33,0 5.3,-0.42 8.81,-1.35 11.23,-2.96 21.23,-7.38 30.87,-11.66 17.4,-7.72 35.38,-15.66 61.33,-15.66 13.55,0 28.15,2.11 44.26,6.47 0.09,0.06 8.87,1.7 19.49,1.7 10.4,0 19.08,-1.59 25.13,-4.74 4.04,-2.09 9.12,-3.2 14.34,-3.2 10.35,0 18.22,4.56 20.58,11.89 4.71,14.89 -13.13,36.64 -53.04,64.63 -22.73,15.93 -45.11,25.96 -64.86,34.89 -38.04,17.16 -68.09,30.71 -88.33,75.51 -4.06,7.37 -9.33,21.28 -6.08,27.33 l 0.94,1.79 c 2.81,4.04 11.65,12.42 24.39,12.42 3.48,0 7.05,-0.59 10.61,-1.9 6.57,-2.32 18.43,-7.07 32.69,-12.78 33.97,-13.61 80.57,-32.26 104.63,-37.96 15.34,-3.51 29.12,-9.27 41.12,-17.37 8.6,-5.1 26.92,-12.7 42.33,-12.7 8.44,0 15.04,2.31 19.57,6.82 4.33,4.41 6.51,10.66 6.41,19.2 -7.87,57.71 -23.14,109.57 -38.02,129.12 -9.36,12.3 -33.7,42.44 -57.64,56.34 -11.48,6.66 -51.58,30.11 -84.32,51.1 l -1.2,0.84 c -10.55,6.06 -21.33,13.72 -32.11,22.88 -9.12,7.24 -16.8,14.31 -23,21.2 -25.46,25.91 -44.47,52.94 -49.47,65.24 -5.58,13.68 -6.74,29.18 -2.66,35.24 2.16,3.09 5.56,2.68 10.58,-0.18 55.72,-31.66 145.78,-37.72 182.16,-38.92 3.76,0 30.15,-2.92 35.7,-4.62 6.62,-2.63 16.93,-7.5 17.16,-7.62 9.55,-3.93 22.24,1.43 26.98,11.64 3.18,6.78 5.86,21.34 -11.52,42.14 -7.47,11.58 -18.39,24.89 -32.58,39.57 -0.29,0.3 -31.57,32.03 -62.11,55.02 -25.74,19.32 -89.2,60.14 -126.21,71.31 -49.74,15.03 -61.37,29.05 -63.85,36.01 -1.25,3.56 -0.59,6.36 0.38,8.25 7.39,3.51 17.98,6.59 31.6,9.28 4.67,0.89 10.17,1.37 16.32,1.37 21,0 42.76,-5.29 43.3,-5.4 32.93,-5.77 57.7,1.12 62.88,16.98 2.38,7.25 2.35,22.35 -24.36,41.84 -20.4,14.86 -34.68,21.09 -77.15,39.68 -8.95,3.93 -19.17,8.39 -31.01,13.67 -28.63,12.59 -32.94,37.08 -30.99,49.56 1.16,7.37 4.65,12.79 8.53,13.18 6.09,0.73 14.61,-0.1 23.81,-0.94 7.27,-0.59 14.78,-1.25 21.47,-1.25 9.27,0 20.38,1.01 24.04,9.21 3.67,8.26 -1.84,19.91 -18.05,38.1 -1.64,1.6 -40.62,39.82 -69.81,50.87 -5.9,2.26 -9.39,4.94 -9.51,7.31 -0.25,4.25 8.02,11.61 20.12,17.88 0.92,0.48 2.08,1.02 3.34,1.58 7.46,3.42 19.94,9.08 21.21,20.92 1.22,11.09 -7.94,23.91 -28.51,39.45 -16.46,10.01 -59.33,40.42 -60.19,60.76 -0.18,4.48 1.77,8.11 6.23,11.34 37.09,27.12 38.86,39.05 36.96,45.68 -2.92,10.21 -17.88,11.22 -22.76,11.55 -17.13,1.22 -29.43,5.76 -34.58,12.86 -2.99,4.13 -3.7,9.23 -2.08,15.93 0.66,3.77 9.71,11.83 15.72,17.14 4.69,4.2 9.15,8.12 11.89,11.54 4.48,5.61 6.03,10.71 4.56,15.15 -1.35,4.04 -5.03,6.97 -10.76,8.43 -2.96,0.71 -6.41,1.08 -10.7,1.08 -15.14,0 -23.93,8.39 -32.34,30.52 -10.72,42.76 -18.24,81.74 -18.3,82.13 l -0.83,3.72 -5.23,0.11 c -10.6,-0.08 -12.2,-7.12 -16.43,-25.91 l -1.29,-5.69 c -17.24,-75.95 -25.59,-102.5 -52.09,-102.5 -3.452,0 -6.628,-0.31 -10.432,-0.98 -7.079,-2.03 -9.629,-5.81 -10.516,-8.59 -1.399,-4.4 0.144,-9.49 4.629,-15.04 5.672,-7.12 14.262,-13.55 22.579,-19.75 8.08,-6.03 18.16,-13.59 18.39,-17.74 0.39,-7.28 -5.88,-14.56 -17.69,-25.59 -11.31,-11.33 -40.154,-30.65 -40.303,-30.74 -3.832,-2.37 -37.64,-23.54 -44.5,-36.96 -2.613,-6.06 -1.136,-10.45 0.594,-13.07 6.449,-9.85 27.238,-10.91 35.895,-10.91 l 0.961,0.03 c 39.765,-1.52 43.033,-9.83 43.273,-11.5 0.71,-4.57 -8.094,-11.91 -13.762,-13.89 -3.84,-1.37 -7.519,-2.63 -11.133,-3.84 -14.48,-4.91 -28.109,-9.54 -44.195,-18.66 -24.469,-15.63 -48.457,-39.16 -49.668,-40.38 -16.043,-17.97 -21.543,-29.66 -17.859,-37.88 3.656,-8.18 14.746,-9.25 23.98,-9.25 6.711,0 14.196,0.64 21.481,1.32 9.203,0.8 17.754,1.61 23.832,0.92 3.89,-0.39 7.387,-5.87 8.554,-13.29 1.954,-12.43 -2.375,-36.85 -31.011,-49.45 -13.551,-6 -25.024,-10.98 -34.864,-15.32 -10.875,-4.77 -19.781,-8.68 -27.683,-12.23 -12.535,-6.73 -35.867,-21.29 -50.832,-42.73 -4.258,-6.13 -5.266,-11.42 -2.996,-15.81 5.07,-9.75 24.207,-9.8 48.402,-9.93 9.352,0 19.004,-0.06 27.563,-0.71 13.004,-0.96 27.515,4.16 40.023,8.73 10.156,3.75 19.844,7.31 26.289,6.59 19.82,-2.07 23.785,-5.64 26.418,-16.16 2.672,-10.75 -4.289,-23 -21.402,-37.07 -3.739,-4.82 -10.703,-9.21 -15.918,-11.47 l -1.84,-0.95 c -22.727,-14.14 -47.106,-24.31 -54.496,-27.27 -78.758,-42.26 -177.633,-103.87 -218.965,-150.17 -19.887,-22.28 -17.512,-37.6 -14.289,-44.74 4.723,-10.53 17.98,-16.22 27.715,-11.94 l 4.535,2.13 c 11.125,5.24 26.328,12.36 47.676,12.36 6.5,0 13.238,-0.64 20.031,-2.01 6.352,-1.26 13.445,-1.9 21.117,-1.9 27.906,0 60.133,8.5 81.25,14.02 13.496,2.91 26.035,14.03 37.117,23.83 7.383,6.6 15.778,14.03 19.953,14.03 0.454,0 1.282,0 2.383,-1.85 23.672,-38.63 -16.754,-84.73 -35.715,-103.33 -21.183,-28.23 -66.851,-55.2 -107.156,-78.96 -23.183,-13.74 -45.097,-26.69 -59.281,-38.17 -43.703,-35.35 -63.656,-81.93 -76.203,-178.07 -3.539,-27.28 -2.324,-43.26 3.828,-50.27 2.359,-2.67 5.41,-4.05 8.894,-4.05 12.926,0 28.543,20.56 31.368,24.49 11.277,13.54 37.699,45.34 106.785,45.34 58.695,0 79.644,14.18 98.16,26.67 4.273,2.9 8.496,5.77 13.133,8.38 16.164,9.15 18.355,5.82 19.465,4.15 3.754,-5.51 -0.246,-22.57 -4.196,-32.72 -20.027,-44.51 -50.101,-58.07 -88.129,-75.24 -17.226,-7.78 -35.019,-15.8 -54.062,-27.81 -5.317,-3.8 -9.953,-8.43 -20.09,-18.54 l -2.074,-2 c -14.481,-14.27 -20.176,-25.56 -16.883,-33.59 2.316,-5.7 9.031,-8.43 17.387,-7.14 6.234,0.96 14.578,-0.64 23.812,-2.24 9.399,-1.67 20.031,-3.58 31.012,-3.58 l 3.113,0.08 c 24.774,0.77 45.106,5.74 72.481,17.58 9.875,4.32 17.863,9.81 24.941,14.68 11.793,8.07 19.766,13.54 28.336,8.07 9.234,-5.89 6.754,-22.93 4.301,-33.4 -0.645,-11.23 -15.922,-34.15 -26.25,-45.68 -15.949,-18 -105.067,-76.12 -135.809,-90.15 -4.367,-2.02 -8.531,-4.08 -13.492,-6.76 -0.973,-0.66 -2.019,-1.38 -3.328,-2.08 -41.684,-23.59 -69.016,-58.68 -70.293,-60.31 -1.09,-1.62 -26.801,-38.63 -19.465,-52.77 1.106,-2.09 3.891,-5.58 10.313,-5.58 5.234,0 12.269,2.29 21.484,7.02 10.535,5.33 22.637,7.87 36.984,7.87 17.328,0 35.051,-3.69 52.235,-7.32 25.843,-5.4 49.644,-9.07 64.351,-1.87 3.77,1.87 4.223,1.42 5.082,0.36 3.598,-4.36 2.641,-19.9 0.743,-30.44 -0.133,-13.89 -2.497,-26.39 -4.067,-29.64 -11.066,-21.94 -19.105,-25.08 -49.09,-36.96 -8.207,-3.27 -17.879,-7.06 -29.59,-12.13 -3.203,-1.43 -78.996,-35.66 -102.589,-55.97 -23.414,-20.14 -35.551,-47.59 -40.739,-62.16 l -2.082,-5.63 c -3.343,-8.92 -6.023,-16 -2.179,-21.51 3.027,-4.4 9.117,-6.25 20.429,-6.25 10.727,0 26.774,1.62 53.727,5.29 26.289,3.56 75.539,20.2 99.605,36.32 5.289,3.56 12.485,5.51 20.211,5.51 11.735,0 22.969,-4.47 29.324,-11.66 4.575,-5.15 6.536,-11.4 5.79,-18.59 -21.153,-50.03 -75.61,-77.96 -120.352,-83.48 -48.602,-6.01 -74.75,-17.41 -79.984,-34.88 -4.789,-16.04 10.781,-29.48 11.859,-30.36 12.984,-8.79 21.711,-17.34 27.891,-23.84 6.796,-7.188 13.718,-18.879 12.75,-30.231 -0.598,-7.008 -4.364,-18.719 -27.071,-29.367 -22.691,-10.57 0,0 0.035,0 C 666.82,937.18 578.996,901.898 554.551,840.16 538.184,798.68 526.73,764.5 520.555,738.66 l -1.075,-5.629 h 0.208 c -4,-22.062 -1.325,-40.761 7.55,-51.89 10.547,-13.18 28.762,-11.571 41.078,4.339 34.207,43.872 155.207,104.579 194.313,108.102 6.246,0.539 13.133,0.93 20.531,1.289 43.211,2.391 102.379,5.609 140.418,45.758 32.387,34.223 46.844,36.902 50.531,36.902 1.59,0 4.551,0 4.551,-6.062 V 799.16 c 0.07,-2.68 0.094,-4.922 0,-6.172 l -0.297,-248.34 c -0.949,-76.566 -6.242,-151.859 -38.07,-183.597 -8.961,-9.039 -19.504,-18.481 -30.652,-28.512 -26.766,-24.059 -57.106,-51.34 -76.825,-81.91 -3.449,-5.34 -6.953,-10.918 -10.605,-16.789 C 788.133,179.281 741.457,100.5 635.18,95.3008 L 507.566,95.3711 1636.32,94.7383"
         style="fill:#1a5350;fill-opacity:1;fill-rule:nonzero;stroke:none"
         id="path28" /><path
         d="m 723.246,107.441 701.394,-0.41 c -33.37,13.938 -63.24,32.141 -77.84,49.61 -33.29,39.769 -58.12,53.91 -80.04,66.328 -15.88,9 -32.35,18.363 -49.96,35.992 -54.25,54.309 -64.1,116.699 -66.62,176 l -0.06,293.32 c -0.15,1.418 -1.45,22.489 8.61,33.457 9.22,10.032 24.51,8.602 43.71,-6.359 38.29,-29.91 60.92,-29.481 128.59,-24.149 l 10.32,0.77 c 62.67,5.41 130.65,-39.578 178.54,-71.781 10.66,-7.188 18.86,-12.707 26.06,-17.09 l 7.95,-4.93 c 15.65,-9.82 36.96,-23.187 49.73,-23.187 4.41,0 6.17,1.789 7.25,3.289 5.76,8.539 8.87,39.82 -35.75,152.879 -16.43,41.351 -65.3,70.582 -92.96,84.308 -13.22,7.063 -27.87,23.332 -31.12,41.172 -2.29,12.781 1.14,24.789 9.9,34.75 9.39,8.512 25.37,26.762 26.26,42.328 0.36,5.653 -1.34,10.461 -5.11,14.684 -6.07,7.289 -22.38,16.758 -67.71,22.328 -48.15,6 -107.1,36.37 -130.13,90.86 l -0.88,3.52 c -1.12,10.5 1.9,20.12 8.71,27.84 14.54,16.41 47.25,20.52 65.52,8.15 22.5,-14.98 70.1,-31 94.49,-34.29 48.95,-6.76 62.59,-3.98 62.77,-3.84 -0.41,0.63 -2.4,5.99 -3.86,9.85 l -2.56,7.01 c -5.45,15.35 -18.32,51.27 -69.27,78.01 -46.21,24.12 -76.35,36.09 -96.23,43.99 -30.87,12.16 -42.35,16.76 -55.53,42.78 -5.07,10.16 -9.25,50.38 0.49,66.08 5.88,9.49 16.23,11.11 27.56,2.73 7.28,-7.27 12.98,-13.32 19.69,-18.55 24.93,-19.2 44.85,-22.73 75.12,-22.73 l 15.08,0.22 c 29.19,0 41.12,-9.21 50.74,-16.64 3.61,-2.78 6.86,-5.28 10.61,-7.01 l 2.97,-1.45 c 4.08,-1.88 9.71,-4.5 12.48,-4.57 -0.09,0.55 1.79,7.45 -7.79,36.48 -22.75,69.2 -61.07,114.11 -120.64,141.26 -29.55,13.61 -121.67,72.71 -139.81,93.16 -0.39,0.43 -36.83,42.08 -27.85,61.99 2.09,4.59 10.44,12.01 28.05,7.13 12.08,-3.15 22.52,-7.72 32.57,-12.24 17.1,-7.54 33.13,-14.62 56.47,-14.62 12.52,0 25.96,1.96 41.08,6.06 1.43,0.48 11.91,2.13 22.67,2.13 12.53,0 22.88,-2.06 30.75,-6.17 5.81,-2.97 16.78,-1.17 17.71,1.66 0.14,0.48 3.79,14.33 -48.44,50.93 -21.6,15.15 -43.25,24.9 -62.39,33.57 -39.28,17.71 -72.77,32.86 -94.88,81.77 -1.89,3.33 -12.96,24.72 -5.75,38.14 l 1.68,2.92 c 4.54,6.59 16.89,17.71 34.39,17.71 4.94,0 9.86,-0.9 14.7,-2.62 6.37,-2.25 17.77,-6.77 31.53,-12.31 35.36,-14.13 81.38,-32.56 104.48,-38.02 16.76,-3.87 31.96,-10.29 45.11,-19.13 9.28,-5.47 39.14,-14.98 46.47,-7.37 0.76,0.71 2.98,2.97 2.88,10.46 -7.35,53.42 -22.03,104.16 -35.53,121.86 -8.93,11.71 -32.05,40.41 -54.05,53.18 -14.95,8.68 -53.17,31.14 -84.76,51.34 -11.93,7.02 -23.38,15.16 -34.63,24.73 -9.32,7.35 -17.55,14.97 -24.15,22.34 -26.47,26.91 -46.14,55.09 -51.75,68.81 -6.15,15.09 -8.98,35.4 -1.42,46.64 5.62,8.14 15.22,10.04 26.64,3.63 53.38,-30.37 141.28,-36.24 176.55,-37.38 v 0 c 4.26,0 31.97,-3.03 38.91,-5.23 7.84,-3.03 18.75,-8.14 18.98,-8.31 h 0.05 c 4.44,0 8.71,2.08 10.46,5.88 1.61,3.39 3.77,12.96 -9.81,29.18 -7.94,12.23 -18.43,24.89 -32,38.98 -3.12,3.2 -32.21,32.33 -60.66,53.7 -24.38,18.31 -87.29,58.78 -122.41,69.42 -42.43,12.77 -65.89,27.03 -71.8,43.54 -2.15,6.19 -1.77,12.48 1.02,17.95 l 1.89,3.64 3.72,1.77 c 8.31,3.92 19.88,7.37 34.47,10.22 20.95,3.98 56.92,-2.31 64.59,-4.1 6.46,-1.13 13.06,-1.72 19.07,-1.72 18.07,0 27.89,5.34 29.62,10.58 1.7,5.34 -2.59,15.56 -19.98,28.29 -19.33,14.01 -33.34,20.18 -74.84,38.37 l -31.08,13.68 c -35.38,15.55 -40.6,46.64 -38.08,62.55 2.11,13.27 9.7,22.41 19.33,23.42 5.62,0.6 14.51,0.06 23.95,-0.77 9.22,-0.77 16.3,-1.36 22.56,-1.36 10.74,0 12.78,1.84 12.97,2.02 0,0.05 1.29,5.58 -16.06,24.95 -9.23,9.28 -42.19,38.99 -65.04,47.65 -11.14,4.23 -16.95,10.33 -17.34,18.09 -0.7,12.38 14.09,22.78 26.64,29.28 l 4.02,1.9 c 5.01,2.31 13.51,6.2 14.08,11.13 0.22,2.25 -0.76,10.99 -23.77,28.4 -5.6,3.35 -63.74,39.54 -65.01,69.97 -0.24,6 1.51,14.62 11.23,21.69 33.03,24.1 32.45,32.4 32.42,32.47 -0.09,0.06 -1.99,2.1 -11.87,2.76 -21.17,1.52 -36.28,7.71 -43.64,17.89 -5.14,7.1 -6.51,15.83 -4.04,25.92 1.03,6.11 6.61,11.98 19.46,23.39 4.54,4.04 8.2,7.19 10.45,10.01 1.91,2.38 2.42,3.87 2.45,4.25 -4.01,0.39 -6.6,0.63 -9.83,0.63 -25.68,0 -36.49,19.43 -43.72,38.41 -6.88,27.22 -12.55,53.27 -15.83,69.1 -0.56,-2.38 -1.16,-4.95 -1.68,-7.41 l -1.35,-5.74 c -15.84,-69.83 -25.4,-111.98 -63.93,-111.98 -2.737,0 -5.268,-0.24 -8.3,-0.78 -0.933,-0.18 -0.437,-1.65 1.465,-4 4.758,-5.98 12.675,-11.92 20.375,-17.65 14.08,-10.49 22.74,-17.42 23.26,-26.8 0.71,-13.29 -9.36,-23.77 -21.56,-35.18 -12.21,-12.26 -42.079,-32.11 -42.34,-32.26 -19.586,-12.15 -36.813,-25.98 -39.903,-32.06 1.035,-2.55 9.071,-6.26 25.649,-6.26 23.75,-0.84 53.714,-4.06 56.264,-21.93 2.05,-13.01 -13.16,-24.1 -21.745,-27.13 l -11.332,-3.87 c -13.801,-4.68 -26.906,-9.11 -42.035,-17.7 -23.379,-14.95 -46.84,-38.17 -47.059,-38.41 -16.691,-18.73 -15.39,-24.25 -15.351,-24.32 0.027,-0.02 1.953,-2 12.855,-2 6.391,0 13.492,0.62 20.375,1.24 11.567,0.97 19.727,1.67 26.297,0.9 9.531,-0.96 17.145,-10.18 19.227,-23.49 2.504,-15.87 -2.735,-46.88 -38.153,-62.46 l -40.125,-17.65 c -8.5,-3.73 -15.73,-6.95 -22.269,-9.92 -10.895,-5.82 -32.356,-19.13 -45.891,-38.56 -1.902,-2.74 -1.996,-3.98 -1.996,-3.98 3.207,-2.5 23.781,-2.56 37.379,-2.62 9.75,0 19.734,-0.06 28.574,-0.78 0.094,0 0.184,0 0.278,0 12.535,0 25.285,4.64 34.57,8.1 10.316,3.8 20.094,7.36 28.734,7.36 l 3.086,-0.17 c 20.801,-2.15 32.246,-6.66 36.906,-25.33 5.856,-23.52 -17.734,-43.01 -25.453,-49.37 -3.601,-5.06 -12.394,-10.46 -18.871,-13.25 -21.906,-13.61 -44.836,-23.59 -56.57,-28.34 -76.656,-41.19 -174.188,-101.91 -214.488,-146.95 -15.864,-17.83 -13.832,-28.11 -12.231,-31.72 1.715,-3.82 6.211,-6.13 9.508,-6.13 l 6.535,2.44 c 11.406,5.34 28.723,13.48 52.77,13.48 7.343,0 14.879,-0.78 22.418,-2.26 26.511,-5.29 70.859,5.18 96.894,11.94 10.852,2.38 22.051,12.31 31.969,21.03 12.059,10.71 19.785,17.25 28.187,17.25 h 6.868 l 5.91,-7.74 c 19.844,-32.32 6.148,-75.46 -37.586,-118.29 -21.41,-28.82 -68.176,-56.41 -109.438,-80.76 -22.914,-13.55 -44.39,-26.27 -57.851,-37.14 -40.949,-33.11 -59.723,-77.67 -71.809,-170.18 -4.258,-32.92 0,-39.63 0.895,-40.65 2.851,0.06 12.527,7.43 21.265,19.49 12.891,15.52 41.887,50.4 116.649,50.4 54.957,0 73.429,12.47 91.324,24.59 4.539,3.09 9.059,6.12 14.004,8.91 9.383,5.3 16.066,7.66 21.621,7.66 4.113,0 9.891,-1.29 13.965,-7.43 8.32,-12.12 -0.207,-36.65 -3.008,-43.84 -22.164,-49.26 -55.609,-64.34 -94.355,-81.88 -16.911,-7.6 -34.293,-15.45 -52.7,-27.02 -3.961,-2.93 -8.359,-7.26 -17.992,-16.89 l -2.183,-2.14 c -14.504,-14.32 -14.094,-20.2 -14.094,-20.26 l 4.273,0.3 c 7.137,1.19 16.172,-0.24 26.602,-2.09 10.078,-1.78 20.086,-3.56 30.078,-3.56 l 2.988,0.06 c 22.785,0.71 41.864,5.35 67.774,16.58 8.906,3.93 16.336,9.03 22.875,13.49 14.398,9.92 28.695,16.7 41.8,8.31 11.758,-7.42 15.032,-23.05 9.59,-46.33 -0.644,-14.4 -19.867,-40.83 -29.047,-51.1 -18.187,-20.53 -110.347,-79.63 -139.82,-93.12 -4.07,-1.86 -8.031,-3.81 -12.719,-6.35 -0.566,-0.43 -1.91,-1.32 -3.5,-2.16 -39.464,-22.4 -66.027,-56.62 -66.285,-56.98 -11.824,-16.94 -19.465,-35.25 -18.183,-40 0.832,1.25 5.312,1.8 15.316,6.91 26.457,13.43 65.676,8.39 97.281,1.68 22.051,-4.66 46.321,-7.86 56.449,-2.89 2.559,1.31 5.497,2.58 8.942,2.58 h 5.73 l 5.161,-5.37 c 7.625,-9.19 5.371,-29.24 3.343,-40.33 0.094,-11.87 -2.203,-26.86 -5.109,-32.79 -13.195,-26.22 -24.688,-30.78 -55.477,-42.99 -8.16,-3.24 -17.757,-6.99 -29.34,-12 -28.738,-13.01 -82.097,-39.09 -99.449,-54.01 -21.265,-18.31 -32.441,-43.57 -37.199,-56.98 l -2.141,-5.84 c -1.421,-3.78 -3.269,-8.71 -3.324,-10.73 0.563,0.29 3.082,-0.61 10.164,-0.61 10.098,0 25.668,1.57 52.078,5.18 24.524,3.33 72.11,19.35 94.481,34.35 18.328,12.35 50.922,8.2 65.433,-8.21 6.832,-7.73 9.864,-17.34 8.762,-27.85 l -0.894,-3.47 c -23.032,-54.52 -81.914,-84.91 -130.086,-90.9 -58.016,-7.14 -68.137,-20.74 -69.809,-26.28 -2.465,-8.26 7.813,-17.34 7.906,-17.41 12.957,-8.74 22.368,-17.93 29,-24.87 4.203,-4.42 17.735,-20.33 16.075,-39.65 -1.368,-16.231 -12.817,-29.411 -34.055,-39.329 l -1.414,2.938 1.289,-3.008 -12.027,-5.332 C 639.246,910.75 583.52,880.25 565.859,835.629 550,795.531 538.887,762.422 532.758,737.359 l -1.09,-6.539 c -3.324,-18.238 -1.43,-33.968 5.066,-42.05 5.68,-7.149 15.016,-4.879 21.965,4.128 36.485,46.84 160.949,109.051 202.844,112.793 6.41,0.559 13.445,0.957 20.992,1.368 41.242,2.25 97.547,5.351 132.215,41.941 25.203,26.629 45.719,40.719 59.359,40.719 10.168,0 16.731,-7.199 16.731,-18.25 V 799.16 c 0.066,-2.93 0.066,-5.519 -0.027,-7.012 l -0.274,-247.5 c -1.156,-91.617 -8.664,-159.296 -41.644,-192.207 -9.067,-9.171 -19.766,-18.769 -31.079,-28.961 -26.242,-23.511 -55.914,-50.25 -74.785,-79.441 -3.414,-5.277 -6.89,-10.867 -10.484,-16.629 l -2.426,-3.859 C 807.117,186.648 776.031,136.789 723.246,107.441 Z M 1636.32,82.5391 635.773,83.1289 h -0.593 l -127.614,0.0508 0.036,24.4023 127.578,-0.07 c 97.008,4.988 141.66,76.59 174.285,128.886 l 2.43,3.903 c 3.683,5.879 7.23,11.578 10.703,16.937 20.601,31.934 51.574,59.774 78.898,84.371 10.992,9.879 21.363,19.141 30.184,27.993 28.859,28.828 33.648,104.769 34.5,175.226 l 0.293,248.16 c 0.129,1.883 0.054,3.684 0.035,5.953 l -0.035,62.918 c -6.59,-3.918 -17.614,-12.199 -34.043,-29.609 -41.321,-43.621 -103.242,-47 -148.434,-49.5 -7.453,-0.41 -14.203,-0.77 -20.32,-1.309 -36.371,-3.25 -153.754,-62.402 -185.754,-103.453 -16.395,-21.199 -45.281,-23.097 -60.195,-4.437 -9.032,11.269 -13.067,27.75 -11.782,47.289 h -0.922 l 3.582,20.082 c 6.426,26.918 18.008,61.629 34.618,103.699 25.425,64.231 111.004,100.59 122.277,105.168 12.727,6.02 19.375,12.492 19.977,19.25 0.593,6.883 -4.313,15.449 -9.454,20.859 -6.148,6.403 -14.046,14.132 -25.91,22.172 -1.742,1.37 -23.941,19.54 -16.664,43.85 6.864,22.99 35.504,36.77 90.145,43.48 40.652,5.02 90.023,29.97 109.844,74.36 0,2.95 -0.93,5.33 -2.922,7.6 -6.657,7.49 -25.215,9.8 -33.59,4.08 -25.821,-17.27 -76.633,-34.47 -104.797,-38.26 -27.512,-3.79 -44.09,-5.4 -55.348,-5.4 -11.109,0 -23.441,1.37 -30.445,11.46 -7.434,10.75 -3.063,22.42 0.762,32.68 l 2.121,5.65 c 5.515,15.57 18.676,45.17 44.199,67.16 23.41,20.2 91.875,51.7 105.355,57.8 12.211,5.23 21.993,9.09 30.297,12.38 29.243,11.57 33.727,13.36 42.672,31.11 0.617,1.75 2.676,11.89 2.754,24.31 1.024,5.99 1.52,11.41 1.645,15.57 -14.922,-3.86 -39.911,-0.3 -62.129,4.33 -29.141,6.18 -60.957,10.78 -81.227,0.48 -25.066,-12.83 -40.879,-9.79 -48.043,3.82 -9.445,18.13 8.621,48.72 20.242,65.36 1.539,2.01 30.204,38.99 74.274,63.93 l 3.5,2.18 c 5.238,2.81 9.601,5.02 14.203,7.15 31.723,14.5 117.953,71.47 131.793,87.17 11.922,13.24 22.91,32.5 23.226,38.33 3.489,15.74 1.973,21.57 1.168,22.52 -3.39,0.29 -9.511,-4.35 -14.777,-7.97 -7.055,-4.87 -15.863,-10.92 -26.937,-15.74 -29.028,-12.61 -50.602,-17.83 -76.973,-18.67 l -3.395,-0.06 c -12.242,0 -23.886,2.08 -33.211,3.74 -7.285,1.31 -12.871,2.38 -17.535,2.38 -4.332,-0.47 -6.297,-0.59 -8.168,-0.59 -11.656,0 -20.859,5.59 -24.691,15.1 -8.016,19.48 12.773,40.05 19.602,46.76 12.316,12.17 17.449,17.35 23.628,21.75 20.442,12.89 38.598,21.09 56.149,29.05 37.168,16.76 63.937,28.87 82.058,69.12 1.848,4.8 3.176,9.97 3.926,14.21 -0.656,-0.36 -1.355,-0.79 -2.109,-1.21 -4.375,-2.43 -8.293,-5.11 -12.293,-7.84 -19.024,-12.84 -42.574,-28.82 -104.996,-28.82 -63.344,0 -86.371,-27.63 -97.422,-40.93 -5.953,-8.26 -22.856,-28.89 -40.731,-28.89 -6.996,0 -13.375,2.92 -18.043,8.2 -8.847,10.03 -10.871,27.99 -6.753,59.9 13.015,99.65 34.125,148.32 80.64,185.93 14.828,12 37.051,25.2 60.586,39.09 39.488,23.3 84.051,49.62 103.754,75.9 16.25,16.09 48.07,51.8 38.801,81.51 -2.512,-2.27 -5.543,-4.93 -7.613,-6.77 -12.325,-10.94 -26.118,-23.11 -42.637,-26.62 -27.418,-7.2 -75.465,-18.48 -107.285,-12.19 -25.618,5.18 -46.254,-2.85 -60.133,-9.44 l -4.645,-2.15 c -16.336,-7.18 -36.648,1.86 -43.922,18.01 -4.402,9.81 -8.152,30.42 16.305,57.83 42.399,47.46 142.645,110.03 222.297,152.76 10.059,4.16 32.938,13.96 53.832,26.91 l 2.828,1.49 c 4.891,2.13 9.801,5.58 11.758,8.08 14.238,12.13 20.555,21.1 19.199,26.62 -1.164,4.59 -1.363,5.54 -15.863,7.02 -0.031,0 -0.07,0 -0.07,0 -4.801,0 -13.661,-3.27 -20.774,-5.88 -13.859,-5.06 -27.445,-9.62 -41.082,-9.62 l -4.008,0.11 c -8.379,0.71 -17.679,0.71 -26.738,0.71 -28.375,0.13 -50.687,0.24 -59.152,16.52 -3.125,6 -4.961,15.75 3.8,28.34 16.469,23.58 41.567,39.29 55.083,46.46 7.304,3.4 14.648,6.61 23.242,10.4 l 40.101,17.59 c 27.43,12.12 24.102,35.48 23.918,36.44 -0.211,1.42 -0.543,2.49 -0.804,3.26 -5.071,0.23 -10.934,-0.41 -17.274,-1.01 -8.848,-0.77 -16.715,-1.49 -23.758,-1.49 -7.578,0 -27.726,0 -35.074,16.48 -7.523,16.82 5.82,35.2 19.859,50.94 0.743,0.75 26.118,25.85 52.231,42.52 17.676,10.08 32.476,15.11 46.832,19.94 l 9.086,3.12 c -5.137,1.04 -12.774,2 -24.047,2.44 -0.082,0 -0.199,0 -0.309,0 -16.582,0 -37.406,2.88 -46.253,16.32 -4.739,7.24 -5.293,15.98 -1.594,24.59 8.062,15.81 37.121,34.97 49.265,42.48 5.18,3.43 29,19.88 38.094,29.01 8.857,8.25 12.277,12.5 13.507,14.67 -3.14,3.06 -9.51,7.79 -12.862,10.31 -8.907,6.66 -18.149,13.55 -24.793,21.92 -8.942,11.07 -8.602,20.42 -6.727,26.29 1.457,4.64 5.852,12.93 18.758,16.62 5.785,1.1 9.617,1.46 13.784,1.46 15.72,0 22.84,16.51 40.22,93.02 l 1.31,5.74 c 4.22,18.83 7.91,35.17 28.19,35.34 l 15.13,-0.35 2.91,-12.98 c 0.15,-0.87 7.48,-39.08 18.2,-81.83 8.22,-21.33 14.79,-21.33 20.55,-21.33 5.19,0 9.62,-0.48 13.58,-1.41 9.84,-2.51 16.68,-8.33 19.42,-16.38 1.96,-6.02 2.42,-15.4 -6.59,-26.65 -2.96,-3.66 -7.58,-7.91 -12.58,-12.37 -3.74,-3.32 -11.7,-10.36 -13.24,-12.98 -0.51,-2.9 0.34,-4.1 0.62,-4.49 1.73,-2.37 9.07,-6.71 25.59,-7.87 18.77,-1.28 30.08,-8.11 33.62,-20.36 4.81,-16.78 -7.22,-33.81 -41.48,-58.84 -0.86,-10.59 25.05,-34.82 53.1,-51.88 16.39,-12.33 36.61,-30.23 34.28,-51.18 -2.05,-18.66 -19.7,-26.74 -28.15,-30.62 l -8.5,9.45 5.59,-10.81 c -3.15,-1.64 -5.78,-3.2 -7.87,-4.63 31.78,-13.95 69.7,-51.66 70.11,-52.01 14.6,-16.36 28.04,-34.82 20.51,-51.64 -7.33,-16.45 -27.52,-16.45 -35.13,-16.45 -6.92,0 -14.73,0.65 -22.24,1.3 -8.65,0.78 -13.93,1.12 -18.75,1.18 -0.29,-0.76 -0.59,-1.83 -0.79,-3.2 -0.18,-1.01 -3.54,-24.47 23.88,-36.55 l 28.37,-12.46 c 45.93,-20.16 60.52,-26.51 82.02,-42.14 32.95,-24.07 32.18,-45.09 28.76,-55.5 -7.23,-22.06 -37.43,-31.91 -76.52,-25.2 -5.72,1.37 -37.53,7.38 -55.28,4.1 -9.01,-1.78 -15.68,-3.56 -20.57,-5.16 4.59,-4.29 17.49,-13.85 53.71,-24.79 40.76,-12.3 106.32,-55.43 130,-73.26 29.86,-22.41 60.06,-52.71 63.42,-56.1 14.83,-15.33 26.29,-29.29 34.18,-41.64 20.89,-24.78 16.73,-44.46 12.31,-53.84 -7.21,-15.5 -27.28,-24.02 -42.63,-17.72 -1.36,0.67 -10.8,5.12 -16.95,7.5 -3.22,0.89 -27.1,3.74 -31.34,3.8 -36.31,1.19 -124.6,7.19 -182.9,37.67 0.38,-4.5 1.56,-10.69 4.15,-16.98 3.93,-9.7 21.04,-35.07 46.88,-61.34 6.09,-6.77 13.35,-13.42 21.89,-20.19 10.49,-8.93 20.65,-16.17 30.61,-21.88 32.93,-21.15 70.8,-43.37 85.59,-51.99 24.85,-14.43 48.99,-43.49 61.19,-59.48 16.27,-21.32 32.14,-74.27 40.42,-134.82 0.25,-13.25 -3.16,-22.65 -9.85,-29.42 -6.9,-6.94 -16.37,-10.45 -28.21,-10.45 -19.22,0 -40.15,9.44 -48.55,14.43 -11.24,7.55 -23.72,12.78 -37.63,15.98 -24.99,5.9 -71.92,24.73 -106.26,38.46 -15.09,6.06 -26.17,10.46 -32.39,12.65 -10.57,3.81 -19.63,-4.04 -20.92,-6 -0.09,-1.55 1.98,-9.45 5.78,-16.27 18.75,-41.49 45.55,-53.55 82.66,-70.31 20.64,-9.33 43.38,-19.61 66.87,-36.06 45.95,-32.21 64.29,-57.11 57.66,-78.21 -4.06,-12.65 -16.38,-20.43 -32.2,-20.43 -7.24,0 -14.1,1.54 -19.88,4.58 -2.52,1.25 -8.33,3.39 -19.59,3.39 -8.76,0 -16.13,-1.28 -17.07,-1.46 -16.47,-4.49 -32,-6.77 -46.68,-6.77 -28.46,0 -48.5,8.86 -66.18,16.71 -8.02,3.57 -16.16,7.15 -24.78,9.81 4.26,-7.38 11.5,-18.72 19.95,-28.28 13.77,-15.53 99.93,-72.56 131.7,-87.13 66.14,-30.16 108.62,-79.71 133.66,-155.78 10.59,-32.21 11.61,-48.19 3.74,-59.08 -8.97,-12.3 -28.37,-8.78 -41.96,-2.43 -8.95,4.11 -13.67,7.81 -17.87,10.99 -8.55,6.6 -15.13,11.71 -36.06,11.71 l -15.08,-0.19 c -34.17,0 -59.86,4.54 -89.98,27.83 -5.19,3.97 -9.74,8.26 -13.73,12.3 -0.75,-11.23 0.64,-27.71 2.68,-32.57 8.87,-17.59 13.37,-19.37 42.59,-30.89 20.45,-8.1 51.25,-20.33 98.62,-45.05 59.37,-31.14 74.46,-73.4 80.91,-91.43 l 2.39,-6.51 c 3.86,-10.39 8.26,-22.03 0.76,-32.72 -6.89,-10.1 -19.24,-11.46 -30.36,-11.46 -11.28,0 -27.82,1.59 -55.33,5.4 -28.01,3.73 -78.78,20.9 -104.77,38.2 -8.47,5.69 -27.12,3.41 -33.7,-4.04 -1.97,-2.24 -2.91,-4.65 -2.91,-7.6 19.86,-44.4 69.27,-69.34 109.92,-74.36 43.96,-5.4 70.4,-15.13 83.18,-30.63 7.79,-8.688 11.66,-19.868 10.98,-31.981 -1.65,-28.309 -28.03,-53.25 -33.32,-57.938 -2.78,-3.34 -4.17,-8.012 -3.22,-13.371 1.78,-9.621 10.88,-19.91 18.35,-23.879 30.45,-15.16 84.97,-48.07 104.39,-96.973 49.42,-125.148 44.5,-158.968 33.23,-175.527 -6.11,-9.031 -15.83,-13.973 -27.33,-13.973 -19.78,0 -43.54,14.922 -62.64,26.864 l -7.83,4.867 c -7.32,4.5 -15.89,10.269 -25.37,16.621 -46.48,31.34 -108.37,72.809 -164.55,68.762 l -10.29,-0.774 c -74.08,-5.879 -102.28,-4.508 -145.44,29.16 -5.86,4.551 -9.65,6.434 -11.74,7.211 -1.02,-3.32 -1.7,-9.488 -1.34,-14.121 l 0.09,-293.726 c 2.29,-53.91 11.13,-110.942 59.51,-159.332 15.32,-15.309 28.95,-23.039 44.69,-32.02 23.79,-13.461 50.66,-28.75 86.75,-71.871 22.76,-27.219 105.55,-64.488 159.16,-65.328 l 111.69,-0.039 V 82.5391"
         style="fill:#ffffff;fill-opacity:1;fill-rule:nonzero;stroke:none"
         id="path30" /></g></g></svg>
