<?xml version="1.0" standalone="no"?>
<!DOCTYPE svg PUBLIC "-//W3C//DTD SVG 20010904//EN"
 "http://www.w3.org/TR/2001/REC-SVG-20010904/DTD/svg10.dtd">
<svg version="1.0" xmlns="http://www.w3.org/2000/svg"
 width="500.000000pt" height="500.000000pt" viewBox="0 0 500.000000 500.000000"
 preserveAspectRatio="xMidYMid meet">

<g transform="translate(0.000000,500.000000) scale(0.100000,-0.100000)"
fill="#000000" stroke="none">
<path d="M2275 4990 c-803 -82 -1498 -517 -1911 -1196 -303 -498 -420 -1083
-334 -1662 114 -773 588 -1449 1280 -1826 968 -528 2173 -353 2955 429 384
384 633 884 712 1430 26 180 23 516 -5 700 -129 830 -646 1529 -1397 1890
-215 103 -483 184 -725 220 -128 19 -452 27 -575 15z m545 -76 c633 -78 1236
-433 1630 -959 442 -590 591 -1343 408 -2060 -83 -324 -248 -652 -462 -919
-494 -614 -1269 -958 -2045 -906 -341 23 -618 98 -926 250 -254 125 -452 267
-648 464 -620 622 -856 1518 -623 2366 227 828 894 1486 1729 1705 313 82 602
100 937 59z"/>
<path d="M2293 4868 c-15 -12 -32 -25 -37 -29 -4 -4 10 -17 33 -29 l41 -21 35
27 c19 14 35 28 35 30 0 2 -18 13 -39 24 l-39 19 -29 -21z"/>
<path d="M2452 4866 l-32 -23 42 -23 43 -22 38 22 c20 12 37 23 37 25 0 8 -68
45 -81 45 -8 -1 -29 -11 -47 -24z"/>
<path d="M2638 4869 c-21 -11 -38 -21 -38 -24 0 -2 16 -15 36 -29 l37 -25 39
20 c43 22 42 31 -9 61 -26 15 -30 15 -65 -3z"/>
<path d="M2111 4840 c-19 -16 -33 -31 -30 -34 2 -2 21 -11 41 -19 36 -15 38
-15 72 11 19 15 35 29 36 32 0 4 -17 12 -37 20 -21 8 -40 16 -43 17 -3 1 -20
-11 -39 -27z"/>
<path d="M2828 4852 c-21 -8 -38 -18 -38 -23 0 -4 15 -20 34 -34 l33 -25 42
19 42 18 -38 30 c-37 29 -39 29 -75 15z"/>
<path d="M1935 4800 l-28 -29 24 -9 c61 -23 64 -23 97 11 l33 34 -39 11 c-53
16 -54 16 -87 -18z"/>
<path d="M2993 4818 c-18 -6 -33 -14 -33 -18 0 -3 13 -19 29 -34 27 -26 31
-27 70 -15 22 7 41 15 41 19 0 10 -55 60 -66 59 -5 -1 -24 -6 -41 -11z"/>
<path d="M1768 4756 c-31 -38 -29 -41 24 -51 33 -6 40 -4 66 27 33 36 32 38
-33 52 -26 5 -34 2 -57 -28z"/>
<path d="M3153 4773 c-29 -6 -28 -11 5 -50 27 -31 29 -32 70 -21 23 6 42 13
42 17 0 3 -12 18 -25 34 -23 26 -41 30 -92 20z"/>
<path d="M2205 4735 c-510 -72 -936 -284 -1296 -644 -435 -435 -659 -975 -659
-1591 0 -365 71 -674 230 -996 324 -656 926 -1101 1665 -1231 142 -25 568 -25
710 0 554 97 1027 367 1375 785 560 671 681 1619 306 2407 -313 659 -922 1124
-1646 1256 -151 27 -534 35 -685 14z m495 -26 c501 -45 972 -261 1335 -611
195 -187 337 -382 455 -623 157 -320 224 -612 224 -975 0 -367 -73 -678 -233
-995 -331 -653 -937 -1089 -1671 -1202 -157 -24 -463 -24 -620 0 -477 73 -889
275 -1229 602 -190 183 -333 379 -452 620 -303 615 -302 1341 2 1954 117 237
230 394 423 587 193 193 350 306 587 423 363 180 776 257 1179 220z"/>
<path d="M2539 4589 c21 -8 23 -14 17 -47 -3 -20 -6 -86 -6 -147 0 -118 -10
-153 -34 -122 -14 19 -32 22 -41 8 -7 -12 22 -41 41 -41 9 0 28 13 44 28 27
27 28 32 35 170 6 116 10 144 24 152 11 7 -1 9 -44 9 -48 0 -55 -2 -36 -10z"/>
<path d="M2680 4580 c12 -7 12 -22 2 -104 -14 -114 -7 -141 43 -161 41 -18 66
-19 98 -4 31 14 44 41 57 126 17 106 19 111 38 116 11 3 7 5 -10 6 -14 0 -35
4 -45 7 -14 5 -15 4 -4 -4 19 -13 7 -153 -17 -202 -14 -28 -24 -36 -50 -38
-22 -2 -41 3 -54 15 -18 16 -20 26 -15 93 9 108 17 140 36 141 25 2 -30 17
-64 18 -22 0 -26 -2 -15 -9z"/>
<path d="M2145 4570 c-22 -4 -32 -8 -23 -9 9 0 19 -9 22 -18 7 -28 29 -224 25
-227 -2 -2 -14 -7 -27 -10 -18 -6 -32 2 -74 42 l-52 50 16 32 c26 53 1 100
-52 100 -29 0 -153 -38 -128 -39 12 -1 23 -20 37 -68 39 -134 44 -162 32 -177
-10 -12 -6 -12 35 0 52 16 66 24 40 24 -17 0 -28 21 -41 78 -10 46 10 42 70
-18 l51 -50 69 15 c39 8 86 15 105 15 96 0 155 100 116 195 -28 66 -98 87
-221 65z m133 -16 c34 -23 52 -67 52 -124 0 -44 -5 -56 -29 -81 -33 -33 -77
-39 -85 -11 -10 36 -28 204 -22 217 7 20 56 19 84 -1z m-288 -63 c19 -37 12
-77 -15 -89 -14 -7 -27 -12 -29 -12 -5 0 -26 85 -26 104 0 24 57 21 70 -3z"/>
<path d="M2968 4538 c16 -16 15 -45 -4 -104 -38 -120 -45 -134 -67 -135 -17 0
-13 -4 13 -14 49 -19 65 -19 46 0 -13 13 -12 23 6 87 11 40 24 82 28 93 7 18
9 19 15 2 55 -134 103 -238 111 -237 5 1 23 50 39 108 24 84 35 109 53 118 23
11 23 12 -9 23 -43 15 -54 14 -39 -4 10 -13 9 -28 -5 -83 -10 -37 -21 -73 -24
-80 -4 -7 -28 38 -55 102 -42 101 -52 116 -79 125 -39 14 -44 14 -29 -1z"/>
<path d="M3269 4446 c16 -19 -65 -226 -92 -234 -14 -3 -8 -9 23 -23 52 -23 48
-24 43 4 -2 12 15 66 39 122 36 83 47 99 63 97 29 -6 16 4 -39 28 -34 14 -45
16 -37 6z"/>
<path d="M1652 4420 c-35 -21 -62 -72 -62 -115 0 -36 35 -101 65 -121 63 -41
151 -20 187 47 23 44 23 83 -2 134 -35 72 -119 97 -188 55z m102 -21 c37 -29
66 -90 66 -138 0 -31 -6 -44 -26 -60 -32 -25 -47 -26 -83 -5 -40 24 -73 78
-79 129 -4 38 -1 50 18 70 29 31 68 32 104 4z"/>
<path d="M3372 4340 c-43 -26 -76 -99 -68 -146 15 -75 93 -124 167 -104 42 12
72 42 94 92 19 47 19 62 -1 104 -33 69 -125 95 -192 54z m140 -17 c38 -45 24
-125 -32 -184 -43 -45 -68 -49 -107 -15 -22 19 -28 32 -27 63 2 46 35 115 66
137 30 21 81 20 100 -1z"/>
<path d="M1438 4306 c-77 -48 -85 -55 -62 -52 25 2 138 -192 122 -211 -15 -19
-6 -16 46 13 48 27 60 40 26 29 -18 -6 -28 5 -74 82 -8 15 50 48 59 33 3 -6
10 -10 15 -10 5 0 0 16 -11 35 -21 35 -36 47 -25 20 5 -14 -28 -45 -49 -45 -8
0 -55 70 -55 82 0 2 16 12 35 22 34 18 36 19 55 1 24 -22 26 -8 2 21 l-17 21
-67 -41z"/>
<path d="M3656 4233 c2 -11 -23 -54 -62 -106 -55 -74 -70 -88 -87 -83 -18 4
-17 1 8 -20 49 -41 64 -47 58 -24 -3 12 5 33 21 55 42 54 50 46 42 -43 -6 -77
-6 -78 21 -94 l28 -16 -3 54 c-5 78 3 104 33 104 37 0 67 35 63 73 -2 24 -15
40 -58 74 -62 47 -70 51 -64 26z m72 -45 c20 -20 14 -63 -13 -88 -21 -20 -28
-22 -50 -12 -32 15 -31 19 6 70 33 45 39 48 57 30z"/>
<path d="M1285 4209 c-22 -17 -31 -29 -20 -25 11 3 25 2 30 -2 11 -8 88 -100
98 -118 6 -11 -99 8 -202 36 -27 7 -38 5 -63 -13 l-30 -22 27 -5 c19 -3 45
-28 86 -80 59 -75 73 -115 44 -127 -9 -3 -70 20 -137 51 -88 42 -124 54 -132
46 -8 -8 6 -44 52 -131 41 -77 61 -126 57 -137 -4 -10 6 -5 24 12 36 35 38 40
11 31 -16 -5 -23 1 -37 29 -17 36 -17 36 11 65 28 29 29 29 63 13 25 -12 33
-21 29 -35 -4 -16 41 21 129 106 6 7 4 8 -8 4 -13 -5 -27 3 -47 25 -50 55 -92
118 -78 118 7 0 69 -13 138 -29 69 -15 127 -27 129 -25 2 2 -23 38 -55 79 -87
112 -99 132 -84 150 18 22 10 18 -35 -16z m-175 -352 c0 -2 -11 -14 -24 -26
l-23 -22 -27 45 c-14 24 -26 47 -26 50 0 4 23 -5 50 -19 28 -14 50 -27 50 -28z"/>
<path d="M2320 4189 c-588 -67 -1088 -418 -1345 -944 -279 -570 -215 -1257
164 -1760 340 -451 893 -713 1440 -681 552 32 1027 302 1332 754 502 746 328
1758 -396 2303 -336 253 -780 375 -1195 328z m358 -40 c185 -20 397 -81 556
-161 743 -372 1098 -1221 840 -2008 -45 -137 -138 -321 -222 -440 -86 -122
-270 -306 -392 -392 -576 -408 -1338 -407 -1923 2 -118 83 -303 268 -390 390
-120 170 -229 417 -271 620 -9 41 -22 137 -28 213 -31 356 62 722 260 1027
342 527 949 817 1570 749z"/>
<path d="M2280 4096 c-367 -53 -689 -220 -948 -491 -211 -220 -346 -481 -413
-795 -20 -90 -23 -135 -23 -310 0 -175 3 -220 23 -310 141 -659 628 -1141
1283 -1272 149 -29 422 -31 573 -4 224 40 472 144 655 274 120 85 296 260 378
377 454 644 386 1508 -163 2061 -246 249 -525 397 -865 460 -118 22 -381 27
-500 10z m378 -16 c481 -51 903 -308 1169 -712 300 -455 341 -1034 110 -1539
l-35 -77 -53 14 c-72 19 -118 18 -186 -5 -78 -25 -119 -26 -173 -2 -187 80
-222 84 -332 34 -63 -28 -42 -30 -208 18 -65 18 -135 15 -212 -9 -37 -12 -89
-24 -115 -28 l-48 -6 -2 129 c0 70 -5 139 -10 153 -5 14 -7 56 -5 93 3 56 6
66 17 57 8 -7 18 -9 23 -6 6 3 15 -1 22 -9 7 -8 19 -15 26 -15 22 0 29 -48 10
-69 -9 -10 -16 -21 -16 -24 0 -11 58 -8 65 3 3 6 13 10 21 10 8 0 12 -5 9 -10
-4 -6 -1 -17 5 -25 6 -8 9 -19 5 -25 -4 -6 3 -19 14 -29 24 -21 29 -40 6 -21
-12 10 -16 9 -21 -4 -9 -25 2 -30 38 -20 64 18 59 121 -9 185 -67 65 -83 82
-83 90 0 15 22 10 36 -8 13 -17 13 -17 14 0 0 10 8 17 21 17 16 0 19 -4 14
-19 -4 -14 0 -23 15 -31 11 -6 24 -9 29 -6 17 11 39 -20 45 -62 6 -42 6 -43
-16 -37 -13 4 -21 5 -18 2 14 -15 84 -67 90 -67 24 0 43 141 20 155 -5 3 -10
14 -10 25 0 26 -63 77 -109 90 -22 6 -53 21 -68 34 -15 13 -41 30 -58 39 -31
16 -85 67 -70 67 4 0 25 -5 47 -12 31 -9 41 -9 47 1 6 10 12 9 25 -4 29 -29
17 6 -14 42 -36 41 -39 57 -6 42 35 -16 80 -103 66 -128 -5 -11 -10 -24 -10
-30 0 -19 43 -12 66 10 24 22 33 21 72 -7 22 -16 23 -16 29 5 4 14 11 20 20
16 10 -3 13 -1 10 7 -3 7 -8 21 -12 31 -4 10 -3 17 4 17 6 0 25 -32 43 -70
l33 -71 43 6 c30 5 42 3 42 -6 0 -9 3 -10 11 -2 8 8 6 19 -5 39 -8 16 -15 23
-16 17 0 -21 -28 -15 -35 8 -9 27 0 35 22 19 10 -8 -3 7 -29 32 -28 27 -62 49
-80 53 -18 4 -65 23 -105 42 -54 26 -81 34 -113 31 -46 -3 -67 15 -31 27 12 3
21 15 21 26 0 10 6 19 14 19 21 0 46 28 40 45 -4 8 -14 15 -23 15 -28 0 -58
27 -45 40 8 8 14 7 24 -5 17 -21 30 -19 30 5 0 12 -5 17 -14 14 -19 -7 -32 16
-15 27 9 6 -2 9 -32 9 -106 0 -203 113 -204 236 -1 30 3 54 8 54 16 0 67 -31
67 -40 0 -6 10 -10 23 -10 31 0 67 -27 67 -50 0 -22 22 -39 28 -22 2 7 11 12
20 12 9 0 26 10 39 22 21 20 24 20 41 5 13 -12 28 -15 54 -11 21 4 38 2 42 -5
4 -6 18 -11 32 -11 37 0 64 -18 64 -41 0 -26 33 -22 38 4 8 41 -8 63 -75 102
-37 22 -70 40 -73 40 -3 1 -14 6 -25 12 -11 6 -53 14 -94 17 -40 4 -90 16
-110 26 -20 11 -49 24 -64 29 -34 13 -28 27 13 33 20 3 30 0 30 -9 0 -7 5 -13
10 -13 6 0 10 9 10 20 0 25 -45 55 -84 55 -41 0 -68 47 -70 123 -4 118 -6 128
-16 111 -5 -9 -11 -27 -13 -40 -2 -13 -8 -24 -13 -24 -5 0 -15 -4 -21 -8 -9
-6 -13 -1 -14 15 0 19 -3 17 -13 -11 -7 -19 -17 -36 -23 -38 -7 -3 -6 9 3 34
14 41 18 70 7 60 -3 -4 -14 -29 -22 -55 -15 -43 -22 -50 -85 -83 -63 -33 -103
-69 -76 -69 5 0 10 -4 10 -9 0 -11 -59 -33 -70 -26 -5 3 -28 -3 -52 -14 -24
-10 -55 -24 -70 -30 -18 -7 -28 -18 -28 -31 0 -17 5 -19 28 -15 24 5 25 4 8
-7 -53 -37 -66 -51 -66 -74 0 -13 -6 -33 -12 -44 -17 -27 3 -50 27 -30 8 7 15
18 15 24 0 7 15 27 34 45 29 28 38 32 69 26 25 -5 48 -1 82 14 26 12 53 21 61
21 7 0 25 16 40 35 17 23 35 35 50 35 24 0 24 0 7 -27 -52 -83 -100 -137 -170
-193 -45 -36 -85 -76 -94 -97 -9 -19 -21 -39 -28 -46 -14 -14 -15 -84 -1 -92
18 -11 32 5 19 21 -10 12 -8 16 10 21 16 4 19 9 11 18 -8 9 -8 15 0 20 5 3 13
-1 16 -9 3 -9 12 -16 19 -16 20 0 29 38 14 56 -16 20 0 31 54 40 20 4 40 10
43 15 3 5 19 6 37 4 28 -5 34 -2 49 27 9 18 20 44 23 57 5 16 10 20 18 12 12
-12 -18 -100 -38 -107 -7 -3 -18 -17 -24 -32 -7 -15 -34 -45 -63 -67 -28 -22
-65 -55 -84 -74 -31 -32 -39 -35 -116 -41 -46 -4 -96 -14 -113 -22 -30 -16
-160 -152 -182 -192 -7 -11 -12 -37 -13 -57 0 -19 -7 -44 -15 -55 -19 -25 -19
-53 1 -61 16 -6 56 30 86 77 9 14 32 37 52 50 30 21 35 29 31 51 -5 21 -2 28
14 32 12 3 21 13 21 25 0 11 7 25 15 32 13 10 15 9 15 -10 0 -19 3 -20 15 -10
8 6 19 9 25 5 5 -3 10 -1 10 4 0 6 5 11 10 11 6 0 10 -6 10 -14 0 -22 17 -28
40 -16 12 6 19 19 17 32 -1 11 4 23 11 25 6 3 12 -2 12 -10 0 -19 58 -31 76
-16 8 6 14 26 14 45 0 18 5 36 10 39 6 3 10 14 10 24 0 9 7 26 15 37 14 17 14
16 9 -23 -4 -23 -4 -50 0 -59 5 -14 12 -10 41 20 37 40 58 117 36 139 -17 17
-13 27 9 27 16 0 20 -7 20 -38 0 -21 5 -43 12 -50 9 -9 8 -16 -4 -29 -9 -10
-18 -34 -20 -53 -3 -19 -9 -44 -13 -55 -8 -18 -7 -19 8 -6 21 17 22 2 2 -25
-11 -14 -14 -15 -15 -4 0 9 -5 5 -13 -9 -6 -13 -30 -34 -52 -47 -52 -29 -134
-112 -142 -144 -3 -14 -21 -46 -39 -72 -18 -26 -36 -59 -40 -73 -4 -16 -20
-33 -45 -45 -48 -25 -55 -37 -35 -59 12 -13 13 -20 4 -29 -19 -19 -21 -92 -3
-92 8 0 15 7 15 16 0 11 6 14 20 9 13 -4 22 -1 26 9 4 9 18 16 34 16 43 0 56
23 42 76 -16 59 -15 71 6 77 9 4 27 14 40 23 21 16 22 15 22 -5 0 -11 6 -21
14 -21 18 0 44 55 55 117 7 34 18 56 40 75 26 23 31 35 31 73 0 25 5 45 10 45
6 0 10 -22 10 -48 0 -39 -5 -53 -25 -72 -28 -27 -31 -42 -11 -60 12 -9 17 -7
28 9 17 27 34 27 43 -1 6 -19 9 -14 14 26 4 29 12 51 20 54 10 3 12 0 8 -12
-4 -10 -7 -38 -7 -63 0 -36 -3 -44 -15 -39 -13 5 -15 -10 -15 -97 0 -56 -3
-124 -6 -152 -3 -27 -7 -90 -7 -140 l-2 -89 -46 -18 -47 -17 -128 66 c-162 83
-217 93 -356 62 -51 -12 -109 -24 -128 -28 -19 -4 -50 -16 -69 -25 -33 -18
-34 -17 -95 12 -118 59 -200 69 -277 35 -24 -11 -57 -23 -74 -27 -16 -4 -38
-15 -47 -23 -17 -15 -20 -11 -53 60 -138 299 -177 649 -109 987 38 187 140
421 257 587 79 113 267 301 380 380 312 220 702 322 1075 283z m-150 -789 c15
-47 15 -51 2 -51 -5 0 -10 12 -11 28 0 15 -3 21 -6 15 -8 -21 -23 -14 -23 10
0 24 7 37 20 37 4 0 12 -17 18 -39z m-58 10 c0 -6 -4 -13 -10 -16 -5 -3 -10 1
-10 9 0 9 5 16 10 16 6 0 10 -4 10 -9z m1 -96 c-5 -24 -9 -31 -10 -17 -1 23
-21 32 -21 8 0 -12 -26 -26 -55 -30 -5 -1 -16 -5 -23 -10 -10 -6 -11 -1 -7 21
5 27 5 28 -5 3 -12 -28 -30 -41 -43 -33 -5 3 1 15 13 28 11 12 18 28 15 36 -7
19 24 59 31 42 3 -7 10 -13 16 -13 5 0 18 -10 29 -22 18 -22 18 -22 19 -2 0
11 -5 25 -11 31 -7 7 -7 13 -1 17 6 4 17 -3 25 -14 14 -21 15 -21 23 7 12 43
17 -2 5 -52z m-146 35 c3 -5 -1 -10 -10 -10 -9 0 -13 5 -10 10 3 6 8 10 10 10
2 0 7 -4 10 -10z m177 -22 c-8 -8 -9 -4 -5 13 4 13 8 18 11 10 2 -7 -1 -18 -6
-23z m28 -29 c0 -29 18 -59 35 -59 8 0 15 -7 15 -15 0 -8 -4 -15 -9 -15 -5 0
-11 -10 -14 -21 -4 -14 -11 -20 -21 -16 -10 4 -18 -4 -25 -24 -5 -16 -15 -29
-21 -29 -8 0 -10 -13 -5 -40 4 -26 3 -40 -4 -40 -6 0 -11 3 -11 8 -1 4 -3 30
-6 57 -9 91 -9 98 5 103 8 3 11 0 7 -7 -4 -6 -1 -11 6 -11 9 0 14 12 14 37 0
20 5 38 11 40 5 2 8 15 5 28 -2 15 0 25 7 25 6 0 11 -9 11 -21z m40 -5 c0 -16
-16 -19 -25 -4 -8 13 4 32 16 25 5 -4 9 -13 9 -21z m-264 -59 c5 -13 9 -13 22
-3 13 11 14 10 10 -2 -2 -8 -12 -15 -21 -15 -9 0 -22 -6 -29 -13 -6 -6 -16
-12 -20 -12 -10 0 -11 44 -1 53 11 12 33 7 39 -8z m-166 -10 c0 -8 -7 -15 -15
-15 -26 0 -18 20 13 29 1 1 2 -6 2 -14z m80 6 c0 -11 -29 -35 -35 -29 -10 9 7
38 21 38 8 0 14 -4 14 -9z m220 -20 c-10 -21 -30 -37 -30 -26 0 14 21 45 31
45 6 0 6 -7 -1 -19z m-190 -6 c0 -8 -6 -15 -14 -15 -7 0 -16 -9 -19 -20 -3
-11 -12 -20 -21 -20 -13 0 -11 7 11 35 30 38 43 44 43 20z m405 -15 c10 -11
16 -23 12 -26 -6 -7 -56 27 -57 39 0 14 27 7 45 -13z m-14 -31 c33 -23 37 -39
11 -39 -10 0 -28 14 -40 30 -26 35 -13 39 29 9z m77 9 c7 -9 5 -20 -8 -36 -16
-19 -19 -20 -18 -5 0 10 -3 26 -7 36 -9 20 17 24 33 5z m-594 -19 c-7 -11 -34
-12 -34 -1 0 14 11 21 26 15 8 -3 11 -9 8 -14z m292 -35 c-3 -8 -10 -13 -15
-10 -5 3 -12 -2 -16 -12 -6 -16 -7 -16 -16 0 -10 18 -2 48 12 48 5 0 9 -6 9
-12 0 -7 6 -4 12 7 13 22 24 5 14 -21z m124 -4 c0 -38 -12 -52 -25 -30 -9 14
4 70 16 70 5 0 9 -18 9 -40z m265 16 c26 13 29 12 56 -17 16 -17 29 -35 29
-40 0 -19 -25 -8 -53 24 -15 17 -26 24 -23 15 6 -21 -13 -36 -24 -18 -4 7 -13
10 -18 6 -12 -7 -32 23 -32 46 1 8 8 4 19 -9 17 -20 20 -20 46 -7z m-355 4 c0
-5 -4 -10 -10 -10 -5 0 -10 5 -10 10 0 6 5 10 10 10 6 0 10 -4 10 -10z m-385
-10 c-3 -5 -10 -10 -16 -10 -5 0 -9 5 -9 10 0 6 7 10 16 10 8 0 12 -4 9 -10z
m715 -64 c0 -1 -10 -2 -22 -1 -21 1 -36 24 -37 55 -1 8 12 1 29 -18 17 -18 30
-34 30 -36z m151 54 c5 0 9 -4 9 -10 0 -14 -13 -12 -36 6 -17 14 -17 15 -1 10
10 -3 23 -6 28 -6z m65 -24 c10 -8 16 -17 13 -20 -3 -4 -17 2 -30 13 -27 23
-13 28 17 7z m-946 -14 c0 -13 -12 -22 -22 -16 -10 6 -1 24 13 24 5 0 9 -4 9
-8z m315 -2 c3 -5 3 -15 -1 -21 -6 -11 -23 6 -24 24 0 10 18 9 25 -3z m-25
-44 c0 -19 -7 -39 -15 -46 -13 -11 -15 -6 -15 32 0 25 3 48 6 51 13 13 24 -5
24 -37z m730 3 c0 -11 -4 -17 -10 -14 -5 3 -10 13 -10 21 0 8 5 14 10 14 6 0
10 -9 10 -21z m-772 -25 c-5 -28 -28 -29 -28 -1 0 13 3 27 7 31 10 10 25 -10
21 -30z m242 5 c0 -24 -4 -30 -15 -25 -11 4 -15 -2 -16 -22 l-1 -27 -10 28
c-8 21 -7 35 3 53 18 34 39 31 39 -7z m-169 -12 c-13 -13 -26 -3 -16 12 3 6
11 8 17 5 6 -4 6 -10 -1 -17z m100 -94 c-10 -17 -10 -17 -11 -1 0 11 -5 15
-15 12 -12 -5 -15 3 -15 36 0 32 3 41 14 37 8 -3 18 2 22 11 6 12 9 3 12 -30
2 -26 -2 -56 -7 -65z m-241 68 c0 -12 -20 -25 -27 -18 -7 7 6 27 18 27 5 0 9
-4 9 -9z m310 -20 c0 -6 -4 -13 -10 -16 -5 -3 -10 1 -10 9 0 9 5 16 10 16 6 0
10 -4 10 -9z m63 -23 c3 -13 9 -33 12 -45 10 -33 -9 -28 -23 5 -9 21 -11 22
-8 5 2 -13 0 -23 -5 -23 -11 0 -11 7 -3 49 8 36 19 40 27 9z m-64 -175 c-6
-29 -13 -53 -17 -53 -10 0 -6 175 4 191 15 24 25 -81 13 -138z m-119 127 c0
-5 -4 -10 -10 -10 -5 0 -10 5 -10 10 0 6 5 10 10 10 6 0 10 -4 10 -10z m260
-57 c11 -25 19 -48 17 -50 -10 -9 -56 18 -62 37 -10 33 2 35 19 3 8 -15 15
-23 15 -18 0 6 -6 21 -14 35 -8 14 -14 31 -15 38 0 24 19 2 40 -45z m-190 23
c0 -11 -19 -15 -25 -6 -3 5 1 10 9 10 9 0 16 -2 16 -4z m227 -11 c3 -9 3 -19
-1 -22 -7 -7 -36 16 -36 28 0 15 30 10 37 -6z m-387 -4 c0 -5 -7 -14 -15 -21
-12 -10 -15 -10 -15 2 0 8 3 18 7 21 9 10 23 9 23 -2z m284 -21 c11 0 16 -9
16 -26 0 -27 -19 -24 -21 4 0 10 -3 12 -6 5 -2 -7 3 -23 11 -35 9 -12 16 -33
16 -45 0 -16 8 -27 25 -33 14 -5 25 -14 25 -20 0 -15 -14 -12 -59 12 -48 26
-68 73 -56 134 6 34 8 37 20 21 6 -9 20 -17 29 -17z m-104 -30 c0 -27 -4 -50
-10 -50 -11 0 -14 83 -3 93 12 12 13 8 13 -43z m-74 3 c-10 -10 -19 5 -10 18
6 11 8 11 12 0 2 -7 1 -15 -2 -18z m-86 -12 c0 -16 -7 -34 -15 -41 -17 -14
-19 -7 -5 20 7 13 7 21 0 25 -12 7 -4 25 11 25 5 0 9 -13 9 -29z m130 13 c0
-19 -44 -124 -52 -124 -9 0 -1 44 13 72 5 9 9 26 9 37 0 12 7 21 15 21 8 0 15
-3 15 -6z m-230 -23 c0 -12 -20 -25 -27 -18 -7 7 6 27 18 27 5 0 9 -4 9 -9z
m521 -17 c11 -14 10 -15 -11 -12 -13 1 -25 9 -28 16 -5 17 23 15 39 -4z m-81
-15 c12 -22 7 -49 -10 -49 -5 0 -10 9 -10 20 0 13 -5 18 -15 14 -9 -4 -15 0
-15 9 0 14 13 24 32 26 4 1 12 -8 18 -20z m-440 -9 c0 -5 -4 -10 -10 -10 -5 0
-10 5 -10 10 0 6 5 10 10 10 6 0 10 -4 10 -10z m221 -37 c-10 -17 -10 -16 -11
3 0 23 13 41 18 25 2 -6 -1 -18 -7 -28z m259 8 c0 -10 -8 -25 -17 -32 -15 -13
-16 -11 -10 11 4 14 7 31 7 38 0 7 5 10 10 7 6 -3 10 -14 10 -24z m-130 -39
c21 -25 24 -35 14 -44 -14 -14 -64 56 -64 89 1 17 2 16 15 -2 8 -11 24 -31 35
-43z m165 28 c0 -7 -6 -15 -12 -17 -8 -3 -13 4 -13 17 0 13 5 20 13 18 6 -3
12 -11 12 -18z m-755 1 c0 -5 -7 -11 -15 -15 -15 -5 -20 5 -8 17 9 10 23 9 23
-2z m50 -5 c0 -2 -7 -6 -15 -10 -8 -3 -15 -1 -15 4 0 6 7 10 15 10 8 0 15 -2
15 -4z m144 -12 c17 -16 20 -27 10 -37 -9 -9 -54 23 -54 39 0 19 25 18 44 -2z
m296 0 c0 -8 -5 -12 -10 -9 -6 4 -8 11 -5 16 9 14 15 11 15 -7z m40 -20 c0 -8
-4 -14 -10 -14 -5 0 -10 9 -10 21 0 11 5 17 10 14 6 -3 10 -13 10 -21z m-420
6 c0 -5 -5 -10 -11 -10 -5 0 -7 5 -4 10 3 6 8 10 11 10 2 0 4 -4 4 -10z m-157
-39 c-3 -11 -14 -28 -25 -38 -19 -17 -19 -17 -12 12 8 35 23 57 34 50 5 -3 6
-14 3 -24z m526 7 c0 -7 -4 -22 -9 -33 -7 -18 -8 -19 -15 -2 -4 9 -5 24 -1 32
7 18 26 20 25 3z m-369 -6 c0 -13 -12 -22 -22 -16 -10 6 -1 24 13 24 5 0 9 -4
9 -8z m300 -4 c0 -7 3 -23 6 -35 5 -17 2 -23 -9 -23 -22 0 -29 15 -21 45 6 26
24 35 24 13z m-505 -8 c3 -5 1 -10 -4 -10 -6 0 -11 5 -11 10 0 6 2 10 4 10 3
0 8 -4 11 -10z m949 -1 c14 -7 30 -25 36 -42 16 -47 12 -55 -10 -20 -10 17
-28 37 -39 43 -12 6 -21 15 -21 20 0 13 4 12 34 -1z m-347 -31 c-3 -7 -5 -2
-5 12 0 14 2 19 5 13 2 -7 2 -19 0 -25z m201 12 c3 -8 0 -10 -8 -5 -9 5 -10 2
-5 -14 7 -24 -7 -28 -25 -6 -9 11 -9 17 2 29 15 17 30 16 36 -4z m-68 0 c0 -5
-2 -10 -4 -10 -3 0 -8 5 -11 10 -3 6 -1 10 4 10 6 0 11 -4 11 -10z m-760 -15
c0 -8 -7 -15 -15 -15 -9 0 -12 6 -9 15 4 8 10 15 15 15 5 0 9 -7 9 -15z m655
-42 c-4 -11 -9 -13 -16 -6 -6 6 -6 19 2 39 12 28 13 28 17 6 2 -13 1 -31 -3
-39z m335 18 c12 -24 13 -51 1 -51 -5 0 -18 16 -30 35 -20 34 -20 35 -1 35 11
0 24 -9 30 -19z m75 -28 c5 -19 2 -23 -14 -23 -21 0 -26 15 -15 45 8 19 19 10
29 -22z m-1038 1 c0 -5 -3 -8 -8 -6 -5 1 -9 -5 -9 -13 0 -19 -14 -19 -34 1
-15 14 -16 13 -16 -12 0 -26 -1 -27 -16 -12 -12 12 -14 20 -5 36 8 15 19 20
48 18 21 -1 39 -6 40 -12z m397 -8 c-3 -8 -1 -17 5 -21 17 -10 13 -20 -20 -44
l-31 -23 7 33 c4 19 11 42 17 52 10 20 30 23 22 3z m736 -5 c12 -23 13 -41 2
-41 -4 0 -13 14 -19 30 -12 33 0 41 17 11z m-634 -7 c-3 -9 -6 -20 -6 -25 0
-5 -4 -9 -10 -9 -5 0 -10 11 -10 25 0 16 6 25 16 25 11 0 14 -5 10 -16z m54
-4 c0 -5 -4 -10 -10 -10 -5 0 -10 5 -10 10 0 6 5 10 10 10 6 0 10 -4 10 -10z
m143 -25 c14 -29 14 -35 2 -35 -15 0 -45 37 -45 57 0 26 27 12 43 -22z m44
-11 c-12 -13 -37 6 -37 28 l0 22 22 -21 c12 -13 19 -25 15 -29z m193 32 c0
-16 -18 -31 -27 -22 -8 8 5 36 17 36 5 0 10 -6 10 -14z m-1030 -16 c0 -5 -4
-10 -10 -10 -5 0 -10 5 -10 10 0 6 5 10 10 10 6 0 10 -4 10 -10z m60 0 c0 -5
-4 -10 -10 -10 -5 0 -10 5 -10 10 0 6 5 10 10 10 6 0 10 -4 10 -10z m650 -27
c0 -28 -3 -34 -10 -23 -8 13 -10 13 -10 -2 0 -9 4 -27 9 -41 6 -14 6 -29 0
-38 -5 -8 -9 -9 -10 -4 -1 6 -5 -8 -10 -30 -4 -22 -11 -53 -15 -70 -6 -27 -6
-29 9 -16 9 7 20 35 23 62 4 27 11 52 17 56 7 4 8 -7 4 -31 -3 -22 -2 -34 4
-31 5 4 9 15 9 26 0 12 4 17 11 13 15 -9 4 -84 -17 -127 -16 -31 -16 -31 1
-17 17 14 18 13 11 -15 -9 -36 -26 -57 -26 -32 0 9 -5 17 -11 17 -7 0 -9 10
-5 28 5 20 4 23 -4 12 -5 -8 -9 -40 -9 -70 0 -49 2 -52 11 -30 l11 25 5 -24
c5 -30 -2 -100 -12 -123 -6 -13 -4 -18 7 -18 8 0 18 6 20 13 3 6 6 0 6 -15 1
-31 -15 -47 -22 -21 -4 14 -5 13 -6 -4 0 -12 6 -29 15 -37 20 -21 26 -188 7
-207 -11 -11 -13 -7 -14 16 0 17 -3 23 -6 15 -15 -46 -15 -46 -23 -25 -5 11
-9 45 -10 75 -1 30 -4 47 -7 38 -2 -10 -9 -18 -15 -18 -6 0 -8 17 -4 48 l6 47
-22 -45 c-17 -36 -22 -41 -26 -25 -2 11 -9 24 -16 28 -7 6 -5 7 6 4 25 -9 38
37 36 133 -1 47 2 133 7 193 6 84 5 107 -5 107 -9 0 -11 11 -6 42 4 23 10 45
14 48 14 10 32 50 32 70 0 16 25 55 38 59 1 1 2 -16 2 -36z m189 -9 c33 -42
23 -64 -29 -64 -20 0 -50 25 -50 41 0 15 32 10 52 -8 17 -15 18 -15 18 4 0 12
-7 23 -15 27 -8 3 -15 10 -15 16 0 18 18 11 39 -16z m-481 -69 l0 -30 -8 30
c-6 25 -8 19 -10 -30 -2 -59 -2 -59 -13 -25 -7 24 -12 29 -14 18 -6 -25 -23
-23 -23 2 0 11 6 20 14 20 8 0 17 16 22 38 14 70 15 71 24 37 4 -16 8 -43 8
-60z m857 55 c-5 -8 -11 -8 -17 -2 -6 6 -7 16 -3 22 5 8 11 8 17 2 6 -6 7 -16
3 -22z m-1272 -6 c-4 -10 -9 -12 -15 -6 -12 12 -1 35 12 27 5 -3 6 -13 3 -21z
m377 2 c0 -3 -4 -8 -10 -11 -5 -3 -10 -1 -10 4 0 6 5 11 10 11 6 0 10 -2 10
-4z m439 -46 c20 -39 17 -56 -9 -40 -7 4 -19 6 -27 3 -7 -3 -13 2 -13 11 0 9
5 16 10 16 7 0 7 6 1 19 -10 18 -6 31 10 31 4 0 16 -18 28 -40z m-285 9 c-3
-5 -10 -7 -15 -3 -5 3 -7 10 -3 15 3 5 10 7 15 3 5 -3 7 -10 3 -15z m212 10
c3 -6 -1 -18 -10 -27 -15 -15 -16 -14 -16 11 0 27 13 36 26 16z m-771 -29 c-5
-8 -11 -8 -17 -2 -6 6 -7 16 -3 22 5 8 11 8 17 2 6 -6 7 -16 3 -22z m1025 -1
c0 -6 -7 -6 -20 1 -11 6 -20 15 -20 21 0 6 7 6 20 -1 11 -6 20 -15 20 -21z
m35 21 c3 -5 -1 -10 -9 -10 -8 0 -18 5 -21 10 -3 6 1 10 9 10 8 0 18 -4 21
-10z m57 -47 c16 -18 48 -77 48 -88 0 -3 -16 13 -36 35 -23 25 -43 39 -56 37
-12 -1 -23 4 -26 12 -3 10 1 12 17 8 11 -3 21 -1 21 4 0 15 16 10 32 -8z
m-652 -10 c0 -5 -4 -15 -10 -23 -11 -18 -25 -7 -17 15 6 15 27 21 27 8z m440
-3 c0 -5 -7 -10 -15 -10 -8 0 -15 5 -15 10 0 6 7 10 15 10 8 0 15 -4 15 -10z
m-572 -38 c-13 -16 -25 -25 -27 -20 -4 11 28 48 41 48 5 0 -1 -13 -14 -28z
m627 -12 c12 -19 -12 -10 -31 11 -19 22 -19 22 3 10 12 -6 25 -16 28 -21z
m-580 10 c-3 -5 -11 -10 -16 -10 -6 0 -7 5 -4 10 3 6 11 10 16 10 6 0 7 -4 4
-10z m545 -40 c0 -11 -2 -20 -4 -20 -2 0 -6 9 -9 20 -3 11 -1 20 4 20 5 0 9
-9 9 -20z m232 -40 c4 0 8 -4 8 -9 0 -6 -9 -9 -20 -8 -15 1 -20 8 -19 32 0 29
1 29 11 8 6 -13 15 -23 20 -23z m-166 -7 c-10 -10 -19 5 -10 18 6 11 8 11 12
0 2 -7 1 -15 -2 -18z m-696 -25 c0 -11 -18 -10 -24 1 -3 5 -16 7 -29 3 -19 -5
-20 -3 -9 10 10 13 17 14 37 4 14 -6 25 -14 25 -18z m30 6 c0 -8 -4 -12 -10
-9 -5 3 -10 10 -10 16 0 5 5 9 10 9 6 0 10 -7 10 -16z m704 -16 c9 -35 7 -43
-6 -30 -13 13 -19 52 -7 52 3 0 9 -10 13 -22z m-774 -43 c0 -16 -27 -32 -37
-21 -7 7 16 36 28 36 5 0 9 -7 9 -15z m371 -38 c-13 -13 -15 11 -4 40 7 16 8
15 11 -6 2 -13 -1 -28 -7 -34z m-291 33 c0 -5 -7 -10 -16 -10 -8 0 -12 5 -9
10 3 6 10 10 16 10 5 0 9 -4 9 -10z m445 1 c3 -5 1 -12 -5 -16 -5 -3 -10 1
-10 9 0 18 6 21 15 7z m5 -51 c0 -5 -4 -10 -10 -10 -5 0 -10 5 -10 10 0 6 5
10 10 10 6 0 10 -4 10 -10z m3 -100 c-3 -11 -9 -20 -14 -20 -10 0 -12 33 -3
43 12 12 22 -3 17 -23z m-153 11 c0 -6 -4 -13 -10 -16 -5 -3 -10 1 -10 9 0 9
5 16 10 16 6 0 10 -4 10 -9z m-413 -30 c28 -6 72 -23 99 -38 27 -16 75 -40
106 -53 32 -14 58 -28 58 -32 0 -3 -18 -9 -41 -13 -22 -4 -68 -19 -102 -33
-44 -18 -84 -26 -137 -28 -90 -3 -113 5 -76 30 14 9 26 22 26 28 0 7 -15 -2
-32 -19 -28 -26 -37 -29 -57 -22 -24 9 -24 10 18 45 23 20 39 39 36 42 -3 3
-25 -13 -48 -36 -42 -41 -44 -42 -75 -29 -26 11 -29 16 -19 26 10 11 8 11 -10
0 -19 -12 -25 -10 -49 14 l-27 27 34 15 c22 10 25 14 9 10 -56 -15 -78 -16
-84 -6 -4 6 -1 13 6 15 213 67 266 75 365 57z m-510 -46 c45 -19 88 -35 96
-35 8 0 49 -23 92 -50 42 -28 91 -53 108 -56 18 -3 70 -19 117 -34 47 -15 114
-33 150 -40 36 -6 90 -20 120 -31 30 -10 72 -19 95 -19 64 0 85 -9 85 -36 0
-18 -11 -29 -49 -49 -27 -13 -58 -36 -70 -51 l-20 -26 -98 16 c-120 20 -253
48 -253 53 0 2 7 15 16 28 19 30 9 33 -14 5 -16 -19 -20 -19 -57 -5 -22 8 -48
14 -57 15 -22 0 -23 13 -3 30 8 7 15 17 15 23 0 5 -9 2 -21 -9 -16 -14 -37
-19 -85 -20 l-63 -1 18 26 c36 52 32 55 -11 7 l-44 -48 -74 7 -74 7 58 55 c75
73 65 80 -12 8 -55 -51 -62 -54 -88 -45 -15 6 -47 8 -72 4 -39 -6 -44 -5 -40
12 2 11 36 36 89 64 94 49 119 67 119 83 0 6 -10 1 -22 -10 -13 -12 -52 -35
-88 -53 -36 -18 -77 -41 -91 -51 -27 -19 -27 -19 -44 7 -28 43 -14 56 108 99
26 9 47 21 47 26 0 5 -10 3 -22 -5 -13 -8 -40 -18 -61 -21 -21 -4 -53 -17 -71
-30 l-33 -22 -43 69 c-40 66 -42 70 -24 83 11 7 47 21 82 30 34 10 65 22 69
27 12 21 136 0 220 -37z m1441 11 c15 -8 50 -17 77 -21 28 -4 91 -22 140 -40
106 -38 215 -63 305 -69 l65 -5 -85 18 c-51 11 -84 23 -82 29 3 15 -11 15 -26
0 -6 -6 -15 -8 -19 -4 -4 4 -1 11 7 16 21 13 3 12 -22 -1 -14 -8 -23 -8 -31 0
-8 8 -6 11 5 11 9 0 19 4 22 9 7 11 -34 2 -50 -11 -13 -9 -44 -1 -44 12 0 5 8
11 18 14 9 2 0 2 -20 -1 -38 -5 -51 7 -25 24 22 14 81 33 106 33 50 0 199 -51
335 -116 28 -13 59 -24 70 -24 12 0 41 -9 65 -20 24 -11 52 -20 62 -20 26 0
24 -10 -8 -48 -27 -30 -33 -32 -130 -41 -55 -5 -111 -15 -123 -21 -31 -17
-225 -1 -305 24 -11 4 -56 10 -100 15 -44 5 -107 16 -140 25 -57 16 -62 16
-115 -3 -58 -21 -195 -55 -267 -66 -33 -5 -43 -3 -44 7 0 7 -1 60 -2 117 l-2
105 65 12 c36 7 92 22 125 33 71 24 136 26 173 7z m906 -49 c48 -15 51 -23 26
-64 -15 -26 -26 -33 -51 -33 -16 0 -40 5 -52 12 -12 7 -33 14 -47 16 -14 2
-26 7 -28 12 -2 4 -11 6 -21 3 -10 -3 -34 3 -52 13 l-34 18 40 7 c22 4 51 12
65 18 33 13 106 12 154 -2z m-1464 -98 c0 -61 -3 -73 -22 -89 -26 -21 -56 -16
-37 6 7 8 7 14 1 14 -5 0 -15 -7 -22 -15 -8 -9 -30 -15 -57 -15 -39 0 -44 2
-33 14 6 8 31 23 56 32 24 9 44 20 44 25 0 9 -62 -15 -106 -42 -26 -16 -37
-17 -60 -8 -28 11 -25 12 81 55 133 54 101 52 -45 -3 -89 -33 -111 -38 -140
-30 -34 9 -33 10 70 44 134 45 253 82 263 82 4 1 7 -31 7 -70z m63 -68 c-5
-33 -2 -39 17 -44 16 -4 21 -12 18 -32 -4 -35 -21 -33 -32 4 -11 37 -28 40
-49 9 l-16 -23 0 22 c-1 37 9 55 25 42 11 -9 14 -7 14 14 0 33 10 58 20 52 4
-3 6 -22 3 -44z m27 4 c0 -14 -4 -25 -10 -25 -11 0 -14 33 -3 43 11 11 13 8
13 -18z m540 -16 c41 -12 226 -45 355 -62 88 -12 89 -13 55 -24 -19 -7 -57
-17 -85 -23 -27 -6 -58 -19 -68 -28 -15 -13 -41 -17 -118 -19 -62 -1 -97 1
-94 7 4 6 2 10 -4 10 -5 0 -13 -4 -16 -10 -3 -5 -20 -10 -36 -10 -17 0 -28 4
-24 10 4 6 -10 8 -38 4 -25 -4 -52 -2 -61 3 -14 7 -4 13 44 28 33 10 63 22 66
27 7 11 6 11 -76 -17 -73 -25 -150 -33 -150 -16 0 11 55 31 89 31 28 1 95 28
71 29 -8 0 -49 -9 -90 -20 -104 -29 -171 -34 -206 -16 l-28 15 39 11 c22 6 78
18 125 27 47 8 105 26 130 39 25 14 54 22 65 19 11 -3 36 -10 55 -15z m739
-56 c-93 -120 -224 -242 -347 -324 -55 -37 -83 -49 -110 -49 -66 0 -67 12 -10
66 29 28 65 58 81 68 15 10 27 22 27 28 0 16 -40 -12 -109 -77 l-68 -64 -48
18 -48 18 34 25 c19 14 52 37 74 52 22 14 35 26 29 26 -14 0 -129 -74 -138
-89 -9 -14 -30 -14 -78 0 -46 12 -49 25 -8 34 16 4 33 11 37 17 4 7 1 9 -8 6
-109 -39 -114 -40 -155 -29 -22 6 -51 22 -63 35 l-23 24 91 12 c50 7 90 15 88
17 -3 2 -44 0 -93 -5 -87 -8 -88 -8 -135 22 -39 27 -99 85 -99 98 0 2 51 -6
113 -19 81 -16 151 -23 256 -24 119 -2 141 -4 127 -15 -10 -7 -35 -15 -56 -19
-21 -4 -46 -13 -57 -21 -17 -13 -16 -14 7 -5 14 5 41 12 61 16 20 3 76 25 125
49 53 25 124 50 174 61 47 9 121 28 165 41 44 12 102 23 129 23 45 1 47 0 35
-16z m-1229 -28 c0 -24 -5 -35 -15 -35 -16 0 -18 12 -9 48 10 34 24 26 24 -13z
m-1047 -10 c84 -13 120 -13 168 -5 50 9 65 8 91 -4 17 -9 37 -16 45 -16 8 0
33 -10 56 -21 45 -24 122 -42 265 -64 119 -19 130 -24 100 -52 -13 -11 -41
-26 -63 -33 -22 -7 -44 -16 -50 -20 -5 -4 -44 -13 -85 -20 -72 -11 -121 -22
-184 -41 -16 -5 -42 -9 -59 -9 -16 0 -47 -5 -68 -11 -33 -10 -42 -9 -73 10
-20 13 -36 26 -36 31 0 12 69 64 118 89 24 12 42 25 39 28 -11 10 -50 -10
-113 -59 l-65 -49 -54 43 c-58 46 -58 46 6 81 17 10 29 20 26 23 -3 3 -26 -7
-52 -21 l-46 -28 -45 44 c-41 40 -43 44 -27 61 9 10 11 18 5 18 -6 0 -14 -4
-17 -10 -10 -16 -22 -12 -40 16 -14 22 -15 28 -4 35 8 5 23 7 34 4 11 -3 68
-12 128 -20z m937 -12 c0 -15 2 -14 15 3 11 15 14 16 15 3 0 -8 -7 -24 -15
-35 -8 -10 -15 -14 -15 -7 0 7 -7 10 -15 7 -16 -6 -19 4 -9 30 8 21 24 20 24
-1z m123 -36 c-7 -8 -4 -18 9 -29 10 -10 18 -13 18 -7 0 6 6 9 13 6 6 -2 12
-15 12 -28 0 -15 8 -28 23 -34 12 -5 20 -15 18 -21 -3 -7 4 -20 15 -30 23 -21
26 -42 2 -23 -18 15 -17 14 4 -38 3 -7 0 -13 -5 -13 -6 0 -14 9 -17 20 -3 11
-11 20 -17 20 -9 0 -8 -6 9 -46 5 -12 -35 -26 -49 -18 -5 4 -2 14 7 24 11 13
13 20 5 25 -8 5 -6 13 6 26 15 17 15 21 -10 63 -14 25 -35 47 -45 51 -37 11
-42 29 -18 59 20 26 40 19 20 -7z m98 16 c9 -10 25 -23 35 -30 10 -6 14 -12 9
-12 -6 -1 -26 12 -45 29 -19 16 -30 29 -25 30 6 0 18 -8 26 -17z m-40 -14 c16
-11 29 -27 29 -35 0 -12 -7 -10 -29 8 -28 22 -47 48 -35 48 3 0 19 -9 35 -21z
m-221 7 c0 -3 -4 -8 -10 -11 -5 -3 -10 -1 -10 4 0 6 5 11 10 11 6 0 10 -2 10
-4z m91 -52 c-12 -26 -24 -45 -27 -41 -3 3 0 15 6 27 6 12 9 24 7 27 -3 3 -15
-13 -27 -36 -27 -54 -44 -53 -21 2 12 28 24 42 37 42 10 0 22 9 27 19 4 10 10
16 13 13 3 -3 -4 -27 -15 -53z m-173 3 c-15 -12 -34 -40 -42 -61 -19 -47 -31
-43 -15 5 12 35 51 79 72 79 7 0 0 -10 -15 -23z m100 1 c-3 -7 -21 -14 -41
-16 -38 -3 -77 -39 -77 -71 0 -27 -30 -61 -53 -61 l-22 0 21 18 c12 9 32 39
45 65 16 33 34 53 54 62 39 17 78 19 73 3z m279 -10 c6 -7 13 -24 15 -38 3
-14 9 -33 13 -42 4 -11 3 -18 -3 -18 -10 0 -62 85 -62 101 0 13 26 11 37 -3z
m-190 -48 c-11 -29 -27 -41 -27 -20 0 14 23 50 32 50 3 0 1 -13 -5 -30z m263
15 c6 -8 9 -19 5 -25 -7 -11 -34 15 -35 33 0 12 17 8 30 -8z m-433 -47 c-8
-18 -17 -41 -21 -50 -3 -10 -10 -18 -15 -18 -8 0 20 87 37 114 13 22 12 -15
-1 -46z m56 40 c-6 -7 -13 -25 -17 -40 -3 -16 -11 -28 -17 -28 -6 0 -8 9 -4
23 4 12 9 30 11 40 3 9 12 17 21 17 11 0 13 -4 6 -12z m77 -34 c0 -8 -4 -14
-10 -14 -5 0 -10 9 -10 21 0 11 5 17 10 14 6 -3 10 -13 10 -21z m70 19 c0 -5
-5 -15 -10 -23 -8 -12 -10 -11 -10 8 0 12 5 22 10 22 6 0 10 -3 10 -7z m31
-30 c-8 -15 -10 -15 -11 -2 0 17 10 32 18 25 2 -3 -1 -13 -7 -23z m255 3 c7
-28 -2 -49 -17 -41 -12 8 -12 65 1 65 5 0 12 -11 16 -24z m-596 -16 c0 -5 -5
-10 -11 -10 -5 0 -7 5 -4 10 3 6 8 10 11 10 2 0 4 -4 4 -10z m207 -23 c-3 -8
-23 -17 -45 -21 -49 -7 -131 -47 -157 -76 -19 -21 -50 -27 -60 -10 -8 12 29
34 92 54 28 10 57 24 63 32 7 7 19 14 27 14 7 0 16 7 19 15 4 10 13 13 25 10
12 -4 19 -2 19 6 0 10 3 10 11 2 7 -7 9 -18 6 -26z m93 12 c0 7 5 9 11 5 8 -5
8 -9 -1 -14 -9 -5 -9 -9 -1 -14 6 -4 11 -12 11 -18 0 -6 -11 -1 -25 12 -27 25
-35 51 -10 30 11 -9 15 -9 15 -1z m250 1 c0 -5 -2 -10 -4 -10 -3 0 -8 5 -11
10 -3 6 -1 10 4 10 6 0 11 -4 11 -10z m-642 -35 c-52 -35 -89 -48 -102 -35 -5
5 -26 11 -45 11 -29 1 -25 3 19 10 30 4 61 6 68 4 7 -3 27 4 45 15 46 29 58
25 15 -5z m592 4 c0 -5 -4 -9 -10 -9 -5 0 -10 7 -10 16 0 8 5 12 10 9 6 -3 10
-10 10 -16z m-510 1 c0 -5 -9 -10 -19 -10 -11 0 -40 -15 -64 -34 -42 -32 -50
-34 -99 -30 -41 4 -62 1 -91 -14 -20 -11 -46 -18 -57 -15 -32 8 -23 20 19 27
22 3 41 11 43 16 2 6 21 10 43 10 93 -2 108 0 127 17 36 32 98 53 98 33z m357
-12 c-3 -8 -6 -5 -6 6 -1 11 2 17 5 13 3 -3 4 -12 1 -19z m303 -5 c0 -13 -3
-13 -15 -3 -8 7 -12 16 -9 21 8 13 24 1 24 -18z m-425 -3 c-3 -5 -12 -10 -20
-10 -7 0 -26 -7 -42 -15 -15 -8 -47 -20 -70 -25 -23 -6 -49 -18 -58 -26 -20
-20 -33 -10 -15 11 12 14 79 50 125 66 31 11 87 10 80 -1z m78 -10 c15 -7 27
-17 27 -22 0 -5 -4 -7 -9 -3 -5 3 -11 -7 -13 -22 -2 -14 -9 -28 -16 -31 -9 -3
-11 3 -6 22 4 17 0 35 -11 52 -9 15 -13 25 -9 22 5 -2 21 -10 37 -18z m279
-17 c56 -54 47 -74 -9 -22 -53 48 -61 59 -42 59 7 0 30 -17 51 -37z m60 0 c21
-20 38 -45 38 -55 0 -24 -17 -23 -25 1 -3 11 -21 33 -40 50 -19 17 -35 33 -35
36 0 15 29 1 62 -32z m-637 15 c-16 -6 -42 -19 -57 -29 -28 -20 -63 -26 -53
-9 10 16 88 49 115 49 24 -1 23 -1 -5 -11z m710 -13 c0 -27 -31 -31 -45 -6 -9
17 -8 20 6 14 12 -5 15 -3 9 6 -5 9 -2 12 11 9 11 -2 19 -12 19 -23z m51 -9
c-3 -11 -6 -26 -6 -32 0 -14 -28 -26 -41 -18 -5 3 -3 15 6 27 8 12 15 29 15
39 0 12 5 15 16 11 10 -4 14 -13 10 -27z m-1068 -1 c-9 -7 -89 -12 -82 -5 10
9 65 18 77 12 5 -2 7 -5 5 -7z m547 5 c3 -5 -2 -10 -11 -10 -17 0 -126 -51
-120 -57 1 -2 22 4 46 12 55 20 84 19 47 -1 -34 -19 -27 -37 10 -23 15 5 39 7
54 4 20 -5 31 -1 41 14 10 14 18 17 28 10 26 -15 46 -11 24 6 -15 11 -16 14
-3 15 8 0 24 -6 34 -14 16 -12 17 -16 6 -30 -10 -12 -31 -16 -80 -16 -36 -1
-99 -5 -140 -9 -41 -5 -81 -5 -90 -1 -9 5 -24 11 -33 14 -10 3 -18 9 -18 14 0
11 82 52 102 52 9 0 29 7 44 15 34 17 50 19 59 5z m307 -21 l33 -30 -50 6
c-64 8 -85 14 -85 25 0 18 20 20 45 4 26 -17 35 -8 13 14 -9 9 -9 12 0 12 6 0
26 -14 44 -31z m258 22 c0 -5 -7 -14 -15 -21 -16 -14 -18 -10 -9 14 6 17 24
22 24 7z m63 -6 c20 -8 47 -15 59 -15 32 0 131 -48 124 -59 -4 -5 -25 1 -49
14 -23 13 -60 26 -82 30 -22 4 -48 9 -57 12 -10 2 -18 0 -18 -5 0 -5 19 -12
42 -16 54 -9 139 -48 116 -53 -9 -2 -33 5 -54 16 -20 11 -42 17 -47 14 -6 -3
7 -15 27 -25 60 -31 32 -38 -49 -12 -80 25 -125 30 -125 14 0 -5 10 -10 23
-10 25 0 126 -26 135 -34 15 -15 -12 -16 -67 -1 -43 11 -67 13 -79 6 -15 -9
-13 -10 9 -11 14 0 33 -6 44 -13 28 -21 1 -31 -32 -13 -74 41 -169 71 -288 92
-22 3 -34 9 -28 11 18 7 185 -24 230 -42 33 -13 35 -13 19 0 -30 23 -10 34 70
42 42 4 60 9 46 12 -13 3 -23 8 -22 11 3 17 13 50 15 50 1 0 19 -7 38 -15z
m-1299 -20 c47 -20 46 -29 -1 -20 -46 8 -55 13 -48 26 8 12 6 12 49 -6z m871
-16 c8 -13 -2 -59 -13 -59 -5 0 -8 16 -8 35 1 35 9 44 21 24z m-535 -18 c98
-21 167 -48 154 -61 -25 -24 -111 -47 -160 -43 -28 3 -60 0 -72 -6 -28 -15
-88 5 -72 24 12 14 127 14 181 0 15 -4 30 -2 33 3 8 13 -141 34 -184 26 -19
-4 -42 -13 -51 -21 -13 -11 -21 -11 -43 -2 -16 7 -26 19 -24 28 5 23 137 34
203 16 73 -19 161 -27 148 -14 -6 6 -42 15 -80 19 -37 5 -83 14 -101 20 -25
10 -39 9 -62 0 -18 -7 -41 -9 -57 -5 l-28 8 30 13 c41 18 84 17 185 -5z m-334
-9 c-10 -2 -22 0 -28 6 -6 6 0 7 19 4 21 -5 23 -7 9 -10z m93 -8 c8 -8 -23
-34 -40 -34 -20 0 -23 8 -13 34 6 15 37 14 53 0z m979 -46 c60 -18 102 -46
102 -68 0 -16 -17 -12 -47 13 -30 25 -158 70 -189 67 -32 -4 -44 0 -44 11 0
15 95 3 178 -23z m-118 -11 c117 -27 149 -37 166 -55 17 -16 17 -17 -4 -20
-12 -2 -38 6 -56 18 -114 70 -470 69 -622 -1 -63 -29 -101 -35 -97 -14 1 6 15
13 30 16 15 3 56 18 91 33 34 14 79 30 100 35 57 13 318 5 392 -12z m-5 -38
c54 -13 85 -30 85 -46 0 -17 -25 -17 -40 2 -28 33 -107 44 -265 35 -82 -5
-151 -7 -153 -5 -2 2 -24 -7 -49 -21 -46 -24 -103 -32 -103 -14 0 5 12 13 28
16 15 4 41 14 58 24 24 12 64 17 160 19 71 1 131 4 133 7 6 5 93 -5 146 -17z
m-625 -9 c0 -5 -12 -10 -26 -10 -14 0 -23 4 -19 10 3 6 15 10 26 10 10 0 19
-4 19 -10z m880 0 c0 -5 -2 -10 -4 -10 -3 0 -8 5 -11 10 -3 6 -1 10 4 10 6 0
11 -4 11 -10z m-277 -32 c15 -6 27 -15 27 -20 0 -6 -11 -7 -27 -3 -16 4 -53 8
-83 10 -30 1 -82 6 -115 11 l-60 9 50 5 c66 7 173 1 208 -12z m-260 -10 c20
-7 37 -17 37 -22 0 -7 -9 -7 -45 5 -5 1 -33 -1 -62 -5 -64 -10 -81 -1 -51 25
25 21 56 20 121 -3z m192 -29 c-28 -11 -135 -11 -135 0 0 13 24 17 94 12 43
-2 55 -6 41 -12z"/>
<path d="M2475 4008 c-2 -7 -9 -30 -15 -50 -15 -50 -73 -99 -178 -152 -96 -48
-152 -101 -152 -142 0 -31 23 -40 52 -20 12 9 30 16 39 16 9 0 24 9 34 20 10
11 24 20 30 20 7 0 19 10 27 22 l15 22 23 -22 c26 -24 45 -28 55 -12 12 19 35
10 35 -14 0 -34 -28 -63 -75 -78 -24 -8 -44 -22 -50 -36 -5 -13 -21 -25 -35
-28 -65 -13 -139 -67 -142 -103 -2 -19 3 -27 26 -35 26 -10 31 -8 58 27 35 43
65 48 74 13 6 -25 -10 -66 -26 -66 -14 0 -12 24 2 38 15 15 6 24 -15 17 -8 -4
-18 -17 -21 -30 -4 -14 -22 -35 -42 -49 -33 -22 -64 -65 -64 -88 0 -5 6 -6 13
-2 8 5 7 2 -2 -9 -8 -10 -11 -20 -8 -23 9 -10 53 25 65 51 6 14 17 25 24 25
23 0 88 70 88 94 0 13 7 29 15 36 18 15 20 -1 3 -18 -9 -9 -9 -15 -1 -23 8 -8
13 -5 18 10 3 12 11 21 17 21 5 0 8 -7 4 -15 -7 -19 -2 -19 35 0 16 9 34 13
39 10 6 -3 10 0 11 7 1 7 5 2 9 -12 8 -24 8 -24 9 -2 1 12 6 22 11 22 6 0 10
15 10 33 1 29 2 30 14 15 7 -10 18 -18 24 -18 6 0 16 -15 21 -32 5 -18 10 -25
10 -15 1 9 7 17 15 17 15 0 66 -55 66 -70 0 -5 3 -15 6 -24 12 -31 -27 -16
-40 15 -11 27 -14 29 -21 13 -6 -17 -8 -17 -17 6 -6 14 -12 20 -15 13 -9 -25
37 -88 77 -104 35 -15 39 -15 45 -1 5 13 11 10 34 -14 45 -45 56 -52 95 -60
28 -5 36 -10 31 -22 -6 -17 21 -52 41 -52 7 0 18 8 23 19 12 21 48 23 60 2 5
-8 26 -15 48 -15 28 -1 39 -7 41 -19 6 -30 37 -15 40 19 3 27 -4 38 -45 74
-56 49 -112 80 -146 80 -14 0 -30 6 -36 14 -7 8 -31 18 -54 21 -52 9 -85 25
-163 81 -74 52 -101 88 -83 111 11 12 9 18 -11 33 -14 10 -21 22 -16 27 4 4
33 -20 64 -54 53 -58 61 -63 111 -69 48 -6 54 -5 48 9 -19 47 -16 48 22 8 39
-40 43 -42 60 -27 22 20 31 20 46 -1 16 -22 45 -10 45 19 -1 26 -22 58 -39 58
-6 0 -29 9 -49 19 -21 11 -60 22 -87 26 -114 16 -194 52 -233 104 -43 59 -13
95 38 46 43 -41 50 -22 9 21 -24 26 -28 33 -12 25 20 -10 31 -22 83 -91 15
-20 21 -22 31 -13 10 10 17 7 35 -12 24 -26 58 -33 69 -15 9 15 -16 83 -39
104 -12 10 -46 31 -77 46 -74 38 -115 87 -136 160 -15 56 -38 78 -48 48z m35
-69 c0 -7 -31 -22 -36 -17 -1 2 0 16 3 32 6 27 7 28 19 11 8 -10 14 -22 14
-26z m16 -56 c-7 -17 -8 -17 -17 0 -12 21 -2 44 13 29 6 -6 8 -19 4 -29z m-71
-10 c-3 -10 -10 -38 -15 -61 -9 -49 -30 -80 -30 -45 0 12 -4 25 -10 28 -14 9
-12 25 3 25 7 0 19 16 26 35 7 19 17 35 23 35 6 0 7 -8 3 -17z m45 8 c0 -12
-39 -58 -40 -46 0 26 14 55 26 55 8 0 14 -4 14 -9z m66 -43 c7 -24 -4 -38 -16
-18 -8 13 -40 24 -40 13 0 -2 5 -13 11 -25 6 -11 8 -22 5 -25 -8 -9 -36 17
-36 34 0 38 65 56 76 21z m-231 -47 c-3 -6 -11 -11 -17 -11 -6 0 -6 6 2 15 14
17 26 13 15 -4z m295 -16 c13 -14 19 -25 13 -25 -5 0 -20 11 -33 25 -13 14
-19 25 -13 25 5 0 20 -11 33 -25z m-250 1 c0 -8 -4 -17 -9 -21 -12 -7 -24 12
-16 25 9 15 25 12 25 -4z m110 4 c0 -5 -4 -10 -10 -10 -5 0 -10 5 -10 10 0 6
5 10 10 10 6 0 10 -4 10 -10z m-213 -6 c-3 -3 -12 -4 -19 -1 -8 3 -5 6 6 6 11
1 17 -2 13 -5z m438 -29 l30 -25 -30 12 c-16 6 -37 18 -45 25 -28 26 13 14 45
-12z m-420 -5 c-3 -5 -13 -10 -21 -10 -8 0 -17 -7 -20 -15 -4 -8 -10 -15 -15
-15 -11 0 1 33 15 42 16 11 48 10 41 -2z m-95 -18 c0 -4 -9 -13 -20 -20 -22
-13 -27 -3 -8 16 14 14 28 16 28 4z m460 -18 c0 -8 -5 -12 -10 -9 -6 4 -8 11
-5 16 9 14 15 11 15 -7z m60 -15 c0 -6 -4 -7 -10 -4 -5 3 -10 11 -10 16 0 6 5
7 10 4 6 -3 10 -11 10 -16z m-520 -4 c-7 -8 -17 -15 -22 -15 -6 0 -5 7 2 15 7
8 17 15 22 15 6 0 5 -7 -2 -15z m291 -37 c6 -24 15 -54 20 -67 8 -20 7 -23 -9
-19 -14 4 -22 -3 -31 -28 -16 -44 -34 -34 -25 14 9 48 15 57 25 41 6 -9 9 -2
9 21 0 20 -7 46 -16 58 -13 19 -13 22 0 22 9 0 20 -16 27 -42z m269 32 c0 -5
-4 -10 -10 -10 -5 0 -10 5 -10 10 0 6 5 10 10 10 6 0 10 -4 10 -10z m-245 -20
c3 -5 1 -10 -4 -10 -6 0 -11 5 -11 10 0 6 2 10 4 10 3 0 8 -4 11 -10z m55 -34
c0 -8 9 -18 21 -21 28 -9 89 -64 89 -81 0 -20 -18 -17 -29 5 -6 10 -33 36 -61
57 -51 39 -61 54 -35 54 8 0 15 -6 15 -14z m-149 -64 c-12 -18 -18 -37 -14
-50 3 -12 1 -22 -5 -22 -17 0 -21 42 -6 65 13 19 12 22 -3 22 -10 0 -25 -5
-33 -12 -29 -24 -40 -26 -40 -10 0 20 60 56 82 49 9 -2 20 1 24 8 7 10 9 9 12
-4 2 -10 -6 -31 -17 -46z m329 -2 c0 -5 -7 -10 -15 -10 -8 0 -15 5 -15 10 0 6
7 10 15 10 8 0 15 -4 15 -10z m-375 -22 c-4 -13 -11 -27 -16 -32 -15 -17 -23
3 -11 29 15 32 36 34 27 3z m435 12 c13 -8 13 -10 -2 -10 -9 0 -20 5 -23 10
-8 13 5 13 25 0z m-505 -30 c0 -10 -14 -15 -47 -17 -56 -4 -60 3 -15 22 38 17
62 15 62 -5z m415 -10 c0 -19 -11 -26 -23 -14 -8 8 3 34 14 34 5 0 9 -9 9 -20z
m107 -5 c3 -9 2 -19 -1 -23 -8 -8 -38 10 -44 26 -6 18 38 14 45 -3z m81 -8 c5
-24 -15 -21 -21 4 -3 13 -1 19 6 16 7 -2 13 -11 15 -20z m-728 -22 c-7 -8 -17
-15 -22 -15 -6 0 -5 7 2 15 7 8 17 15 22 15 6 0 5 -7 -2 -15z m30 -14 c0 -6
-4 -13 -10 -16 -5 -3 -10 1 -10 9 0 9 5 16 10 16 6 0 10 -4 10 -9z m200 0 c0
-12 -20 -25 -27 -18 -7 7 6 27 18 27 5 0 9 -4 9 -9z m285 -101 c3 -5 -1 -10
-9 -10 -8 0 -18 5 -21 10 -3 6 1 10 9 10 8 0 18 -4 21 -10z m-485 -22 c0 -16
-31 -48 -47 -48 -17 0 -16 5 3 35 17 26 44 34 44 13z m630 -26 c14 -5 32 -18
40 -28 14 -16 13 -17 -7 -12 -26 7 -30 -4 -8 -22 19 -15 21 -84 3 -78 -7 3
-14 18 -16 35 -2 17 -13 39 -24 49 -12 11 -18 13 -14 7 4 -8 1 -13 -9 -13 -11
0 -15 6 -11 18 4 11 -6 25 -29 42 -19 14 -35 28 -35 32 0 7 59 -9 110 -30z
m-95 -12 c18 -19 17 -20 -3 -20 -12 0 -22 2 -22 4 0 2 -3 11 -6 20 -9 22 9 20
31 -4z m218 -38 c18 -16 23 -52 7 -52 -6 0 -15 11 -20 24 -5 13 -14 27 -19 31
-6 3 -11 11 -11 16 0 11 15 4 43 -19z m-25 -29 c6 -19 -25 -16 -32 3 -4 11 -1
14 11 12 9 -2 18 -9 21 -15z m107 -61 c-19 -4 -35 13 -35 37 0 10 8 7 26 -10
22 -20 23 -25 9 -27z"/>
<path d="M2836 3898 c-28 -100 -29 -108 -13 -108 9 0 18 13 22 31 6 28 10 31
36 25 36 -7 41 19 5 28 -18 4 -23 11 -19 26 6 23 11 24 47 10 20 -7 26 -6 26
4 0 13 -48 36 -76 36 -8 0 -20 -23 -28 -52z"/>
<path d="M2015 3918 c-16 -6 -31 -12 -32 -13 -2 -1 9 -36 23 -78 16 -47 31
-77 40 -77 17 0 16 -3 5 37 -13 46 6 53 38 15 17 -21 30 -29 39 -24 10 7 7 15
-10 37 -15 19 -21 39 -19 61 2 24 -3 35 -18 43 -23 13 -26 13 -66 -1z m55 -38
c0 -11 -2 -20 -4 -20 -2 0 -11 -3 -19 -6 -19 -7 -32 27 -15 38 22 14 38 9 38
-12z"/>
<path d="M3001 3887 c-5 -12 -18 -46 -30 -75 -25 -62 -25 -62 -7 -62 7 0 19
14 26 30 16 39 38 24 42 -27 2 -20 9 -38 16 -41 10 -3 12 4 7 32 -6 31 -4 39
19 57 43 34 30 68 -37 97 -25 11 -28 10 -36 -11z m55 -31 c14 -11 16 -18 8
-26 -18 -19 -53 -3 -47 20 6 24 13 25 39 6z"/>
<path d="M1858 3853 c-21 -8 -38 -20 -38 -27 1 -6 15 -41 33 -77 l32 -67 43
19 c24 10 42 25 42 34 0 14 -3 14 -32 -1 -30 -15 -32 -15 -45 2 -12 16 -10 20
12 31 25 14 34 33 14 33 -6 0 -19 -5 -29 -10 -15 -8 -21 -6 -30 10 -10 19 -8
23 19 33 17 6 31 17 31 24 0 16 -6 16 -52 -4z"/>
<path d="M3138 3761 c-28 -52 -34 -71 -25 -79 24 -19 75 -41 81 -35 12 12 6
21 -24 33 -32 13 -34 17 -21 39 8 12 15 13 35 3 19 -8 27 -8 32 0 4 7 3 13 -2
15 -26 9 -36 22 -30 38 4 12 12 15 24 10 35 -15 52 -17 52 -7 0 10 -64 52 -78
52 -4 0 -24 -31 -44 -69z"/>
<path d="M1667 3744 l-28 -15 19 -27 c11 -15 31 -46 46 -70 l27 -43 28 17 c39
23 54 56 40 91 -24 63 -72 80 -132 47z m68 -10 c26 -10 47 -61 35 -84 -15 -28
-24 -25 -54 20 -29 44 -32 56 -13 63 6 3 13 6 14 6 1 1 9 -2 18 -5z"/>
<path d="M3283 3684 c-45 -67 -51 -84 -30 -84 6 0 31 29 54 64 32 48 39 67 30
74 -9 8 -24 -7 -54 -54z"/>
<path d="M3352 3625 c-32 -40 -48 -66 -41 -70 6 -4 23 5 38 19 l28 26 18 -20
c18 -20 18 -21 -5 -45 -18 -20 -21 -28 -12 -37 7 -7 15 -8 20 -2 51 59 92 114
92 123 0 18 -21 12 -40 -11 -18 -23 -18 -23 -39 -4 l-21 19 20 22 c23 25 25
31 7 38 -7 3 -35 -22 -65 -58z"/>
<path d="M1455 3570 c-27 -28 -36 -43 -29 -50 8 -8 15 -6 24 5 12 14 19 11 61
-31 28 -28 52 -43 59 -39 8 5 -4 23 -36 56 -41 41 -45 50 -34 64 8 10 10 19 4
25 -6 6 -24 -5 -49 -30z"/>
<path d="M3487 3507 l-58 -53 34 -39 c22 -25 38 -36 46 -31 9 6 6 15 -14 36
-23 24 -24 28 -10 40 13 11 19 10 35 -5 28 -25 47 -8 20 20 -18 20 -19 23 -5
35 13 11 19 9 40 -10 39 -36 52 -13 14 26 -18 19 -35 34 -38 34 -4 -1 -32 -25
-64 -53z"/>
<path d="M1337 3442 l-28 -37 28 -23 c92 -76 102 -82 108 -72 4 7 -3 23 -16
36 -20 21 -21 28 -11 44 15 24 15 30 1 30 -7 0 -17 -8 -24 -17 -11 -15 -15
-15 -29 -4 -14 12 -14 16 4 41 17 24 18 41 1 40 -3 -1 -19 -17 -34 -38z"/>
<path d="M3599 3389 c-35 -28 -66 -53 -68 -55 -2 -2 3 -6 12 -9 21 -9 137 82
130 101 -3 8 -6 14 -8 14 -1 0 -31 -23 -66 -51z"/>
<path d="M3705 3360 c-4 -6 -2 -17 5 -25 9 -11 1 -21 -44 -51 -31 -20 -56 -43
-56 -50 0 -21 10 -17 69 22 51 35 55 36 68 18 8 -12 16 -15 23 -8 6 6 1 23
-17 49 -35 54 -40 58 -48 45z"/>
<path d="M1256 3333 c-12 -13 -5 -21 49 -56 37 -25 53 -42 49 -52 -9 -22 -31
-18 -87 16 -39 24 -52 28 -58 17 -12 -19 87 -79 126 -76 35 3 57 47 39 76 -14
22 -110 83 -118 75z"/>
<path d="M3785 3114 c-27 -19 -56 -39 -64 -43 -8 -5 -11 -15 -8 -24 5 -12 13
-13 48 -6 61 14 69 6 21 -21 -39 -22 -52 -43 -34 -53 8 -6 150 18 158 26 15
15 -8 25 -39 16 -62 -18 -75 -10 -29 17 27 17 42 33 42 46 0 17 -4 19 -26 14
-15 -4 -40 -9 -58 -12 -30 -6 -30 -5 12 21 23 14 42 33 42 41 0 20 -9 17 -65
-22z"/>
<path d="M1136 3113 c-15 -15 -2 -26 67 -58 l72 -34 18 36 c10 19 16 42 12 51
-5 14 -9 11 -22 -13 -9 -16 -17 -31 -18 -33 -2 -2 -30 10 -63 27 -33 16 -62
27 -66 24z"/>
<path d="M3851 2906 l-73 -19 6 -40 c8 -46 13 -57 27 -57 7 0 8 15 4 40 -6 36
-5 40 14 40 14 0 23 -8 27 -25 9 -37 32 -32 30 7 -2 45 29 51 37 8 4 -16 13
-30 21 -30 11 0 12 8 4 43 -6 23 -14 45 -17 48 -3 3 -39 -4 -80 -15z"/>
<path d="M1054 2885 c-3 -8 -7 -29 -8 -46 -1 -32 0 -33 69 -50 39 -10 73 -19
76 -19 6 0 29 77 29 94 0 3 -6 6 -14 6 -7 0 -16 -13 -19 -30 -5 -22 -12 -30
-28 -30 -19 0 -21 4 -15 30 4 22 2 30 -9 30 -8 0 -15 -6 -15 -12 0 -24 -16
-39 -34 -32 -13 5 -15 14 -10 40 6 35 -11 49 -22 19z"/>
<path d="M3860 2741 c-31 -4 -46 -11 -48 -23 -3 -14 3 -15 37 -11 39 5 41 4
41 -20 0 -25 -16 -37 -51 -37 -11 0 -19 -7 -19 -16 0 -14 8 -16 53 -10 98 13
117 18 117 33 0 12 -8 14 -35 9 -31 -6 -35 -4 -35 14 0 11 -1 23 -2 28 -1 4
11 9 27 12 15 3 30 11 33 18 4 13 -35 14 -118 3z"/>
<path d="M1020 2717 c0 -19 12 -24 93 -32 56 -6 67 -5 67 8 0 11 -17 17 -67
22 -36 4 -72 9 -80 12 -7 3 -13 -2 -13 -10z"/>
<path d="M1038 2609 c-16 -9 -38 -65 -38 -96 0 -10 24 -13 85 -13 l85 0 0 39
c0 31 -6 44 -26 60 -28 22 -78 27 -106 10z m83 -29 c10 -6 19 -20 19 -30 0
-18 -7 -20 -55 -20 -59 0 -70 13 -39 44 18 18 47 20 75 6z"/>
<path d="M2845 2609 c4 -6 -1 -16 -11 -23 -34 -26 10 -66 72 -66 36 0 31 32
-11 69 -35 30 -63 42 -50 20z m63 -62 c5 -24 -15 -21 -21 4 -3 13 -1 19 6 16
7 -2 13 -11 15 -20z"/>
<path d="M3970 2550 c0 -18 -7 -20 -70 -20 -56 0 -70 -3 -70 -15 0 -12 14 -15
70 -15 63 0 70 -2 70 -20 0 -11 5 -20 10 -20 6 0 10 25 10 55 0 30 -4 55 -10
55 -5 0 -10 -9 -10 -20z"/>
<path d="M2447 2197 c-11 -29 -9 -43 4 -30 6 6 9 19 7 29 -3 18 -4 18 -11 1z"/>
<path d="M2482 1800 c-1 -14 -5 -36 -8 -50 -5 -19 -4 -22 5 -14 7 7 11 28 8
50 -2 22 -4 28 -5 14z"/>
<path d="M1795 1734 l-30 -26 35 23 c45 29 45 29 34 29 -5 0 -22 -12 -39 -26z"/>
<path d="M1975 1664 c-19 -15 -22 -21 -9 -15 18 9 52 41 43 41 -2 0 -17 -12
-34 -26z"/>
<path d="M1315 1760 c-3 -5 -1 -10 4 -10 6 0 11 5 11 10 0 6 -2 10 -4 10 -3 0
-8 -4 -11 -10z"/>
<path d="M1207 1723 c-37 -14 -66 -28 -63 -30 6 -6 125 38 132 48 7 11 11 12
-69 -18z"/>
<path d="M3238 1763 c7 -3 16 -2 19 1 4 3 -2 6 -13 5 -11 0 -14 -3 -6 -6z"/>
<path d="M2839 1704 c-26 -19 -55 -47 -65 -62 -14 -22 -9 -20 27 13 25 22 58
50 75 62 16 12 25 22 19 22 -5 0 -31 -15 -56 -35z"/>
<path d="M2645 1710 c-3 -5 -2 -10 4 -10 5 0 13 5 16 10 3 6 2 10 -4 10 -5 0
-13 -4 -16 -10z"/>
<path d="M2735 1698 c-43 -31 -105 -90 -105 -101 0 -6 21 10 48 34 26 25 61
54 77 66 17 12 26 22 20 22 -5 0 -23 -9 -40 -21z"/>
<path d="M2590 1680 c-13 -8 -13 -10 2 -10 9 0 20 5 23 10 8 13 -5 13 -25 0z"/>
<path d="M2915 1670 c-23 -26 -8 -26 25 0 18 14 21 20 9 20 -9 0 -24 -9 -34
-20z"/>
<path d="M2985 1629 c-11 -17 1 -21 15 -4 8 9 8 15 2 15 -6 0 -14 -5 -17 -11z"/>
<path d="M2845 1610 c-8 -13 5 -13 25 0 13 8 13 10 -2 10 -9 0 -20 -4 -23 -10z"/>
<path d="M2725 1590 c-10 -11 -16 -22 -13 -25 3 -3 13 6 22 20 20 30 16 32 -9
5z"/>
<path d="M3704 1714 c-18 -14 -18 -14 6 -3 31 14 36 19 24 19 -6 0 -19 -7 -30
-16z"/>
<path d="M3024 1476 c-10 -8 -17 -17 -14 -19 3 -3 14 1 24 9 11 7 17 16 15 19
-3 3 -14 -2 -25 -9z"/>
<path d="M3410 1330 c-24 -15 -7 -19 20 -5 15 8 19 14 10 14 -8 1 -22 -3 -30
-9z"/>
<path d="M3954 4006 c5 -15 -11 -37 -69 -96 -79 -82 -86 -99 -60 -150 20 -39
53 -60 92 -60 25 0 48 14 107 66 50 44 81 64 92 60 11 -4 8 3 -8 23 -28 36
-35 38 -34 10 1 -14 -21 -41 -64 -79 -84 -75 -102 -80 -140 -41 -17 16 -30 38
-30 48 0 28 146 164 167 156 16 -6 6 9 -51 72 -5 6 -6 3 -2 -9z"/>
<path d="M900 3867 c0 -7 -31 -52 -68 -98 l-68 -85 25 -19 c20 -15 23 -15 13
-2 -12 14 -11 21 8 47 12 16 26 30 32 30 5 0 48 -30 95 -66 69 -54 84 -70 79
-88 -3 -15 5 -10 29 19 40 46 43 55 16 48 -14 -3 -46 16 -105 62 -71 55 -84
70 -76 84 15 29 39 44 57 37 13 -5 11 0 -6 18 -28 30 -31 31 -31 13z"/>
<path d="M4155 3782 c10 -19 -16 -43 -106 -103 -65 -43 -82 -49 -94 -39 -22
18 -18 4 10 -38 22 -33 25 -34 23 -13 -3 21 10 34 72 77 41 29 76 49 78 46 1
-4 -15 -67 -37 -140 -21 -72 -36 -132 -32 -132 4 0 50 29 102 65 65 46 101 65
117 62 28 -5 28 1 -4 38 -14 17 -23 24 -19 18 3 -7 2 -20 -3 -28 -9 -17 -124
-97 -130 -91 -1 2 12 55 31 119 l34 115 -24 28 c-13 16 -21 23 -18 16z"/>
<path d="M714 3605 c-51 -78 33 -158 116 -110 51 29 100 14 100 -31 0 -30 -24
-47 -61 -42 -29 5 -30 4 -14 -9 28 -20 51 -16 74 13 28 36 27 79 -4 109 -30
31 -61 31 -119 3 -42 -20 -46 -20 -70 -4 -29 18 -31 28 -16 57 7 11 21 19 38
19 21 0 24 2 12 10 -24 16 -38 12 -56 -15z"/>
<path d="M4324 3513 c1 -12 -29 -34 -98 -72 -84 -46 -101 -52 -118 -42 -16 10
-15 5 7 -39 23 -46 45 -70 31 -35 -3 10 7 23 32 39 70 44 164 87 178 82 18 -7
18 -3 -6 44 -22 44 -29 49 -26 23z"/>
<path d="M4391 3399 c-1 -8 -46 -57 -101 -108 -55 -51 -100 -96 -100 -99 0 -4
67 -7 148 -7 l148 0 -10 27 c-8 21 -12 24 -20 13 -7 -8 -46 -15 -106 -19 l-95
-7 70 65 c44 42 76 64 88 62 21 -5 21 -2 -3 49 -10 22 -19 33 -19 24z"/>
<path d="M635 3339 c-42 -12 -80 -54 -104 -119 -24 -63 -26 -77 -8 -62 18 15
221 -68 226 -93 4 -20 61 118 61 148 0 79 -95 147 -175 126z m85 -59 c45 -23
70 -54 70 -88 0 -27 -17 -62 -30 -62 -5 0 -56 18 -113 40 -115 45 -120 52 -71
105 29 31 88 34 144 5z"/>
<path d="M4490 3143 c0 -18 -16 -25 -112 -52 -107 -30 -114 -30 -127 -14 -12
16 -13 16 -7 -7 3 -14 14 -54 22 -90 9 -36 20 -69 25 -74 4 -4 20 -4 36 2 23
9 24 11 7 11 -28 1 -44 21 -51 64 -5 35 -4 36 36 47 23 6 48 13 56 16 8 4 15
-5 20 -26 5 -24 3 -35 -12 -46 -16 -13 -16 -14 12 -8 45 10 74 23 54 23 -20 1
-36 19 -41 45 -2 14 7 21 41 32 53 15 57 13 66 -27 5 -22 2 -36 -12 -51 -18
-20 -18 -21 7 -13 14 4 27 9 29 11 4 3 -38 166 -45 173 -2 2 -4 -5 -4 -16z"/>
<path d="M481 3099 c-1 -9 -4 -32 -7 -50 -6 -31 -5 -32 8 -15 14 18 17 18 99
-1 l84 -20 -115 -59 c-105 -54 -115 -62 -121 -92 -6 -31 -6 -32 11 -17 15 14
25 13 111 -6 112 -26 129 -33 129 -59 0 -26 -16 -33 -152 -65 -156 -37 -157
-46 -3 -110 65 -27 122 -57 130 -69 14 -20 15 -19 15 16 0 30 -3 35 -18 31
-10 -2 -30 0 -45 6 -22 9 -27 17 -27 45 0 38 12 51 57 60 25 6 32 4 35 -11 3
-10 8 11 12 47 4 36 12 81 16 100 8 31 8 33 -5 16 -13 -17 -19 -18 -72 -7 -32
6 -76 16 -98 22 l-40 11 129 65 c71 35 125 68 120 73 -5 4 -45 15 -89 24 -118
25 -145 36 -155 60 -6 15 -9 16 -9 5z m79 -460 c0 -21 -4 -30 -12 -26 -7 2
-30 10 -50 18 -45 16 -48 26 -10 32 68 10 72 9 72 -24z"/>
<path d="M4551 2909 c-1 -19 -14 -23 -139 -40 -80 -10 -95 -10 -103 2 -6 10
-8 5 -8 -16 1 -35 16 -89 18 -63 1 17 10 21 79 32 49 8 41 -16 -23 -66 -56
-44 -59 -48 -49 -83 4 -18 11 -14 61 33 l57 52 21 -20 c28 -26 70 -25 96 1 18
18 20 28 14 74 -7 59 -23 119 -24 94z m9 -88 c0 -68 -95 -80 -114 -14 -7 21 4
26 107 42 4 0 7 -12 7 -28z"/>
<path d="M4501 2630 c-14 -3 -39 -26 -56 -50 -33 -47 -65 -61 -91 -39 -22 18
-13 61 16 76 l25 13 -28 0 c-36 0 -53 -38 -36 -87 12 -37 34 -53 76 -53 35 0
51 12 86 68 28 43 60 55 85 30 18 -18 15 -55 -5 -67 -16 -9 -16 -10 5 -11 19
0 22 5 22 43 0 61 -40 92 -99 77z"/>
<path d="M635 2494 c30 -27 35 -88 9 -98 -31 -12 -222 -7 -227 7 -3 6 -6 -12
-6 -42 -1 -47 1 -52 12 -37 10 13 34 18 121 23 100 6 110 5 124 -13 13 -17 14
-14 8 36 -3 30 -6 74 -6 96 0 39 -2 42 -30 46 l-29 4 24 -22z"/>
<path d="M4330 2419 c0 -37 3 -49 10 -39 13 21 217 15 243 -7 16 -15 17 -13
17 38 -1 43 -3 50 -11 36 -10 -17 -21 -18 -122 -12 -84 5 -115 11 -124 23 -11
13 -13 7 -13 -39z"/>
<path d="M4558 2324 c7 -3 12 -24 12 -51 0 -43 -1 -44 -27 -39 -16 2 -68 10
-116 17 -75 9 -90 15 -97 33 -8 20 -9 20 -9 1 -1 -11 -4 -38 -7 -60 -6 -35 -5
-38 7 -23 13 16 21 17 124 2 60 -8 111 -17 113 -19 2 -1 0 -19 -3 -39 -6 -28
-12 -36 -29 -36 -17 0 -18 -2 -6 -10 39 -25 46 -14 60 100 7 60 13 113 14 117
0 5 -10 9 -24 10 -14 1 -19 0 -12 -3z"/>
<path d="M640 2287 c27 -14 51 -80 34 -96 -5 -5 -30 -12 -56 -16 -45 -7 -47
-6 -54 20 -5 21 -2 31 11 42 18 12 17 13 -6 12 -30 -1 -73 -17 -48 -18 15 -1
29 -28 29 -57 0 -16 -93 -25 -102 -11 -15 24 -8 66 15 83 22 16 22 16 -8 9
-16 -4 -31 -8 -33 -10 -2 -2 2 -39 9 -84 9 -61 15 -77 23 -66 6 8 57 21 120
30 106 17 110 17 124 -1 13 -17 14 -16 8 16 -4 19 -9 53 -12 75 -11 83 -12 85
-47 85 l-32 0 25 -13z"/>
<path d="M670 2081 c29 -8 68 -77 53 -92 -5 -5 -58 -23 -116 -39 -98 -26 -108
-27 -118 -12 -8 14 -9 12 -4 -8 3 -14 8 -37 12 -53 5 -23 7 -25 17 -12 6 9 58
29 115 46 86 25 105 28 119 17 14 -11 15 -10 9 12 -4 14 -14 53 -23 88 l-16
62 -37 -1 c-31 -1 -33 -2 -11 -8z"/>
<path d="M4269 2016 c-14 -49 -15 -56 -2 -43 13 13 22 13 74 -1 53 -13 64 -20
106 -73 39 -48 49 -55 55 -41 12 30 9 40 -11 35 -13 -3 -27 6 -45 30 -14 18
-26 36 -26 39 0 7 83 30 95 26 6 -2 9 -7 7 -11 -1 -5 2 -6 6 -3 5 3 12 18 15
33 3 16 9 37 13 48 6 16 5 18 -7 9 -18 -15 -137 -54 -162 -54 -45 0 -96 23
-99 44 -2 13 -9 -2 -19 -38z"/>
<path d="M4049 1382 l-25 -33 -37 16 c-42 17 -46 11 -17 -25 25 -32 25 -32 -7
-71 l-28 -32 25 6 c14 4 35 9 46 13 17 4 26 -2 43 -30 13 -20 25 -36 28 -36 3
0 3 20 1 45 l-6 45 39 6 c53 9 56 19 9 33 -36 11 -39 14 -42 54 l-3 42 -26
-33z"/>
<path d="M912 1361 c3 -44 3 -44 -42 -59 l-45 -16 45 -11 c44 -11 45 -12 48
-54 l3 -44 25 36 24 36 40 -14 c22 -8 40 -12 40 -8 0 3 -11 18 -25 35 -26 31
-26 34 11 85 l16 22 -42 -16 -42 -17 -30 35 -29 34 3 -44z"/>
<path d="M3854 1149 l-31 -30 -36 21 c-41 25 -44 22 -21 -22 15 -30 15 -31
-17 -64 l-33 -34 44 6 c45 6 45 6 67 -37 l22 -44 0 32 c1 51 10 63 53 69 l40
7 -34 20 c-18 12 -34 22 -36 23 -2 1 1 19 7 40 6 21 9 39 8 41 -2 1 -17 -11
-33 -28z"/>
<path d="M1110 1139 c16 -55 13 -65 -32 -85 l-43 -19 50 -5 c50 -5 50 -5 53
-42 4 -47 14 -48 35 -3 16 34 18 35 59 29 l43 -7 -32 34 -31 34 20 39 20 38
-41 -23 -41 -23 -35 34 -35 34 10 -35z"/>
<path d="M3525 940 l14 -40 -42 -31 -42 -31 50 3 49 3 11 -44 c12 -48 18 -46
30 9 7 33 7 33 56 29 l49 -5 -37 32 -38 33 18 36 c23 50 22 51 -16 22 -39 -30
-50 -32 -67 -10 -8 8 -21 19 -31 25 -17 9 -17 7 -4 -31z"/>
<path d="M1350 921 l20 -39 -38 -32 -37 -31 46 6 46 6 14 -48 13 -48 14 48 13
47 47 0 47 0 -38 25 c-41 28 -42 31 -27 71 15 38 4 42 -28 11 l-28 -27 -36 25
c-20 14 -40 25 -43 25 -3 0 4 -18 15 -39z"/>
<path d="M2765 668 c-33 -34 -35 -39 -12 -25 15 10 27 14 27 10 0 -5 7 -48 15
-98 18 -113 19 -104 -7 -116 -19 -8 -15 -9 17 -4 22 2 51 5 65 6 24 0 24 1 4
9 -22 9 -23 12 -45 155 -16 111 -18 112 -64 63z"/>
<path d="M2227 673 c-27 -13 -47 -27 -44 -29 3 -3 15 -1 26 6 25 13 25 15 10
-100 -13 -92 -23 -114 -48 -105 -10 4 -12 3 -6 -3 6 -5 34 -12 64 -15 47 -6
52 -5 35 7 -18 13 -18 18 -1 137 9 67 16 124 14 125 -1 1 -24 -9 -50 -23z"/>
<path d="M2356 661 c-23 -25 -24 -76 -2 -100 16 -18 16 -20 -8 -44 -14 -15
-26 -35 -26 -47 0 -54 89 -81 130 -40 27 27 26 81 0 105 l-20 18 21 23 c24 26
28 66 9 89 -18 22 -83 19 -104 -4z m88 -23 c7 -20 5 -33 -8 -53 l-18 -27 -24
23 c-13 12 -24 32 -24 44 0 49 58 60 74 13z m-29 -133 c28 -27 30 -37 15 -66
-12 -21 -50 -25 -68 -7 -15 15 -16 53 -2 79 14 25 26 24 55 -6z"/>
<path d="M2552 657 c-26 -28 -30 -88 -6 -111 19 -20 68 -21 83 -2 10 12 7 15
-16 18 -56 6 -68 108 -13 108 34 0 53 -43 48 -108 -5 -67 -32 -113 -78 -134
-37 -16 -40 -31 -4 -18 76 29 124 93 126 165 1 64 -26 99 -78 103 -31 2 -44
-2 -62 -21z"/>
<path d="M1601 4695 c-13 -19 -22 -37 -20 -39 2 -2 22 -6 44 -9 37 -6 43 -4
69 29 15 19 26 37 24 39 -1 2 -23 6 -48 10 -43 6 -46 5 -69 -30z"/>
<path d="M3308 4713 c-16 -4 -15 -8 8 -39 27 -35 62 -43 106 -26 16 6 15 10
-8 40 -25 32 -54 39 -106 25z"/>
<path d="M1442 4624 c-13 -20 -22 -37 -20 -39 2 -1 21 -6 44 -9 39 -7 42 -6
67 32 l26 40 -31 6 c-52 10 -62 7 -86 -30z"/>
<path d="M3460 4644 c0 -4 9 -22 21 -40 19 -31 25 -34 70 -34 54 0 53 -1 17
53 -16 22 -27 27 -64 27 -24 0 -44 -3 -44 -6z"/>
<path d="M1291 4546 c-30 -48 -27 -56 22 -56 40 0 45 3 65 39 12 21 22 41 22
45 0 3 -20 6 -44 6 -40 0 -47 -4 -65 -34z"/>
<path d="M3630 4530 c20 -39 22 -40 71 -40 l50 0 -23 40 c-22 38 -26 40 -71
40 l-47 0 20 -40z"/>
<path d="M1178 4483 c-16 -2 -28 -6 -28 -7 0 -2 -7 -20 -15 -40 l-15 -36 45 0
c42 0 46 2 65 40 11 21 20 42 20 45 0 5 -27 5 -72 -2z"/>
<path d="M3779 4438 c17 -41 20 -43 64 -46 26 -2 47 -1 47 2 0 3 -7 21 -16 40
-17 35 -37 46 -86 46 l-27 0 18 -42z"/>
<path d="M1048 4383 c-33 -4 -38 -8 -52 -49 -14 -41 -14 -44 3 -44 58 0 77 11
93 56 10 29 12 43 4 42 -6 -1 -28 -3 -48 -5z"/>
<path d="M3910 4371 c0 -6 6 -27 14 -45 12 -29 21 -35 56 -41 23 -4 43 -5 46
-3 2 3 -4 23 -13 46 -12 31 -22 42 -37 42 -12 0 -31 3 -43 6 -14 4 -23 2 -23
-5z"/>
<path d="M922 4270 c-42 -10 -48 -16 -60 -63 l-11 -38 32 6 c59 12 65 15 70
43 3 15 9 35 12 45 8 19 6 19 -43 7z"/>
<path d="M4044 4254 c4 -11 10 -31 13 -46 5 -28 11 -31 72 -43 30 -7 33 -5 27
11 -4 11 -10 31 -13 46 -4 20 -13 28 -37 33 -17 4 -40 9 -50 12 -15 4 -18 2
-12 -13z"/>
<path d="M788 4147 c-30 -8 -38 -16 -43 -41 -4 -17 -9 -38 -11 -47 -4 -14 1
-15 41 -6 26 6 47 17 49 26 13 45 17 81 9 80 -4 -1 -25 -6 -45 -12z"/>
<path d="M4175 4117 c12 -59 15 -65 43 -70 15 -3 35 -9 44 -12 16 -6 17 -3 12
26 -11 54 -21 66 -64 77 l-41 10 6 -31z"/>
<path d="M668 4013 c-32 -13 -37 -20 -40 -56 -3 -23 -4 -44 -2 -45 1 -2 19 1
39 8 38 12 55 40 55 86 0 27 -2 28 -52 7z"/>
<path d="M4290 4001 c0 -58 12 -78 52 -90 22 -7 41 -11 42 -9 2 2 1 22 -2 45
-4 39 -7 43 -48 57 -41 14 -44 14 -44 -3z"/>
<path d="M560 3872 c-32 -15 -35 -21 -38 -65 l-3 -47 45 22 c44 21 46 24 46
65 0 24 -3 43 -7 43 -5 0 -24 -8 -43 -18z"/>
<path d="M4400 3835 c0 -42 2 -46 40 -65 21 -11 42 -20 44 -20 5 0 -3 90 -8
97 -1 1 -19 9 -39 18 l-37 15 0 -45z"/>
<path d="M468 3728 c-36 -21 -38 -25 -38 -71 l0 -49 38 23 c51 31 50 29 43 76
l-6 42 -37 -21z"/>
<path d="M4490 3687 c0 -40 3 -45 39 -65 43 -25 51 -19 51 38 0 21 -8 33 -34
49 -48 30 -56 27 -56 -22z"/>
<path d="M387 3575 c-33 -23 -37 -30 -37 -70 0 -25 3 -45 6 -45 4 0 22 9 40
21 31 19 34 25 34 70 0 27 -1 49 -3 49 -1 0 -19 -11 -40 -25z"/>
<path d="M4576 3549 c-10 -50 -8 -55 33 -82 l39 -26 7 45 c3 25 5 47 3 48 -34
25 -67 46 -71 46 -2 0 -7 -14 -11 -31z"/>
<path d="M310 3412 c-31 -27 -33 -30 -26 -75 l7 -48 38 30 c37 29 38 33 31 71
-4 23 -9 43 -12 45 -2 3 -19 -8 -38 -23z"/>
<path d="M4646 3378 c-7 -40 -5 -45 26 -70 39 -33 48 -34 48 -9 0 10 2 31 5
47 5 25 1 32 -28 52 -18 12 -36 22 -39 22 -3 0 -8 -19 -12 -42z"/>
<path d="M252 3249 c-31 -27 -33 -34 -27 -70 4 -21 10 -41 13 -43 4 -2 22 9
40 24 l33 28 -13 45 -13 45 -33 -29z"/>
<path d="M4716 3252 c-2 -4 -7 -24 -11 -44 -6 -33 -4 -40 27 -66 36 -33 38
-32 52 33 5 26 2 34 -28 57 -19 16 -37 25 -40 20z"/>
<path d="M202 3077 c-33 -34 -33 -36 -21 -76 7 -22 15 -41 19 -41 3 0 19 13
35 30 28 29 28 30 14 76 l-14 45 -33 -34z"/>
<path d="M4762 3069 c-23 -61 -23 -64 12 -98 l33 -32 13 46 c13 46 13 47 -18
78 l-31 31 -9 -25z"/>
<path d="M159 2897 l-26 -32 18 -43 19 -43 30 35 31 34 -17 41 c-9 23 -19 41
-23 41 -3 0 -18 -15 -32 -33z"/>
<path d="M4787 2879 c-16 -41 -16 -42 11 -75 15 -18 29 -33 32 -33 3 -1 13 18
22 42 15 42 15 43 -12 75 -14 17 -29 32 -32 32 -3 0 -12 -19 -21 -41z"/>
<path d="M137 2723 l-26 -36 20 -39 c11 -21 21 -38 24 -38 2 0 16 15 30 34
l26 34 -21 41 c-11 23 -22 41 -24 41 -1 0 -15 -16 -29 -37z"/>
<path d="M4810 2709 l-21 -41 26 -34 c14 -19 28 -34 30 -34 3 0 13 17 24 37
l19 37 -26 38 c-13 21 -26 38 -28 38 -2 0 -13 -18 -24 -41z"/>
<path d="M129 2544 l-22 -37 23 -44 24 -45 23 39 c12 21 23 41 23 45 0 8 -40
78 -45 78 -2 0 -14 -16 -26 -36z"/>
<path d="M4821 2538 l-23 -43 22 -37 c12 -21 23 -38 25 -38 5 0 45 70 45 78 0
4 -11 24 -23 45 l-23 39 -23 -44z"/>
<path d="M133 2367 l-20 -42 22 -33 c12 -18 25 -35 28 -38 3 -3 15 13 27 36
l21 41 -29 39 -28 39 -21 -42z"/>
<path d="M4812 2355 l-22 -35 20 -40 c11 -22 22 -40 24 -40 2 0 15 17 28 38
l26 38 -19 37 c-11 20 -23 37 -27 37 -4 0 -17 -16 -30 -35z"/>
<path d="M148 2189 c-17 -41 -17 -41 10 -75 15 -19 29 -34 32 -34 3 0 13 19
22 41 l18 42 -28 33 c-15 18 -29 33 -32 33 -3 1 -13 -18 -22 -40z"/>
<path d="M4797 2185 c-27 -34 -27 -35 -11 -75 9 -22 19 -40 23 -39 3 0 17 14
30 30 22 28 23 34 12 69 -6 22 -15 41 -19 44 -5 3 -20 -11 -35 -29z"/>
<path d="M180 2015 c-13 -46 -13 -47 18 -78 l31 -31 9 25 c23 61 23 64 -12 98
l-33 32 -13 -46z"/>
<path d="M4766 2011 c-28 -29 -29 -31 -16 -76 l13 -47 34 34 c32 32 33 36 22
68 -17 51 -22 53 -53 21z"/>
<path d="M221 1845 c-11 -44 -11 -46 21 -74 18 -16 36 -27 40 -23 4 4 10 25
13 47 6 37 4 42 -28 67 l-35 27 -11 -44z"/>
<path d="M4721 1842 c-33 -27 -33 -27 -20 -75 l12 -48 34 33 c30 29 33 37 28
68 -9 50 -17 53 -54 22z"/>
<path d="M276 1678 c-7 -39 -4 -45 24 -70 16 -16 34 -28 39 -28 5 0 11 19 14
43 6 38 4 44 -26 69 -18 15 -35 28 -38 28 -4 0 -10 -19 -13 -42z"/>
<path d="M4668 1679 c-22 -18 -35 -36 -33 -47 2 -9 6 -30 10 -45 l6 -28 34 27
c36 27 42 50 27 101 -7 21 -7 21 -44 -8z"/>
<path d="M346 1528 c-10 -52 -7 -62 30 -86 20 -13 37 -22 39 -20 1 2 6 21 9
44 7 39 6 42 -32 67 l-40 26 -6 -31z"/>
<path d="M4594 1513 c-27 -25 -30 -32 -25 -71 l6 -42 38 26 c35 23 38 29 35
66 -2 23 -8 43 -13 45 -6 2 -24 -9 -41 -24z"/>
<path d="M420 1356 c0 -40 3 -46 36 -65 19 -12 39 -21 45 -21 5 0 9 20 9 45 0
42 -2 46 -40 65 -21 11 -42 20 -45 20 -3 0 -5 -20 -5 -44z"/>
<path d="M4528 1370 c-47 -25 -50 -30 -42 -79 l7 -41 38 22 c37 20 39 24 39
70 0 26 -1 48 -2 48 -2 -1 -20 -10 -40 -20z"/>
<path d="M514 1219 c3 -17 6 -39 6 -49 0 -11 15 -23 40 -33 l40 -15 0 44 c0
41 -3 45 -40 64 -51 26 -54 26 -46 -11z"/>
<path d="M4433 1217 c-41 -20 -43 -23 -43 -64 0 -24 2 -43 4 -43 2 0 20 7 40
15 37 16 50 41 44 88 l-3 24 -42 -20z"/>
<path d="M614 1087 c3 -12 6 -33 6 -47 0 -21 8 -29 45 -42 43 -16 45 -16 45 1
0 58 -11 77 -57 94 l-45 17 6 -23z"/>
<path d="M4324 1078 c-31 -10 -44 -36 -44 -89 0 -17 3 -17 44 -3 42 15 44 17
48 60 3 47 2 48 -48 32z"/>
<path d="M726 939 c11 -54 21 -66 64 -77 l41 -10 -6 31 c-12 59 -15 65 -43 70
-15 3 -35 9 -44 12 -16 6 -17 3 -12 -26z"/>
<path d="M4215 946 c-32 -10 -41 -19 -46 -42 -14 -62 -13 -63 31 -52 23 6 44
18 49 27 12 24 22 81 13 80 -4 -1 -25 -7 -47 -13z"/>
<path d="M844 824 c4 -10 10 -31 13 -46 4 -20 13 -28 40 -33 19 -3 41 -9 48
-11 11 -5 12 1 4 33 -14 49 -25 60 -73 69 -36 6 -39 5 -32 -12z"/>
<path d="M4115 825 c-5 -2 -22 -6 -36 -9 -19 -4 -29 -14 -33 -33 -4 -16 -9
-36 -12 -45 -5 -15 0 -17 28 -11 53 10 65 20 76 63 10 40 6 45 -23 35z"/>
<path d="M975 703 c4 -10 11 -30 17 -45 8 -21 17 -27 51 -30 23 -3 44 -4 45
-2 2 1 -1 19 -8 39 -12 38 -40 55 -87 55 -20 0 -24 -4 -18 -17z"/>
<path d="M3944 703 c-13 -2 -26 -19 -37 -50 l-17 -45 23 6 c12 3 33 6 47 6 21
0 29 8 42 45 l17 45 -27 -1 c-15 -1 -36 -4 -48 -6z"/>
<path d="M1110 605 c0 -2 7 -20 16 -39 14 -29 23 -35 61 -41 25 -3 46 -5 47
-3 2 2 -5 22 -16 46 -18 40 -21 42 -63 42 -25 0 -45 -2 -45 -5z"/>
<path d="M3770 559 c-12 -23 -20 -43 -17 -45 2 -2 24 -1 49 2 42 6 47 10 61
45 l15 39 -44 0 c-41 0 -45 -2 -64 -41z"/>
<path d="M1273 513 l-23 -4 23 -40 c21 -37 25 -39 70 -39 l48 0 -23 43 c-24
43 -42 51 -95 40z"/>
<path d="M3620 470 l-20 -40 22 0 c13 0 32 -3 44 -6 17 -4 26 2 43 31 11 20
21 40 21 46 0 5 -20 9 -45 9 -42 0 -46 -2 -65 -40z"/>
<path d="M1442 431 l-42 -6 25 -37 c22 -33 31 -38 65 -38 21 0 41 4 44 8 4 7
-41 85 -47 80 -1 0 -21 -4 -45 -7z"/>
<path d="M3467 392 l-26 -40 45 -7 c25 -3 47 -5 48 -3 31 43 47 70 45 72 -2 2
-22 7 -45 10 -39 7 -42 6 -67 -32z"/>
<path d="M1602 358 l-42 -9 21 -30 c27 -39 41 -44 89 -33 l40 9 -33 36 c-31
35 -33 36 -75 27z"/>
<path d="M3306 325 c-16 -20 -26 -38 -25 -39 2 -2 23 -6 46 -10 39 -6 44 -4
69 29 15 20 25 37 23 39 -2 2 -22 7 -45 10 -38 7 -42 5 -68 -29z"/>
<path d="M1763 297 l-41 -12 28 -34 c26 -31 32 -33 67 -26 21 4 41 9 45 11 8
5 -42 75 -52 73 -3 -1 -24 -6 -47 -12z"/>
<path d="M3137 267 l-26 -35 44 -11 c44 -11 46 -11 74 21 16 18 27 36 23 40
-4 4 -25 10 -48 13 -37 6 -42 5 -67 -28z"/>
<path d="M1922 247 l-33 -12 34 -33 c34 -33 36 -33 76 -21 22 7 41 15 41 18 0
13 -55 61 -69 60 -9 0 -31 -6 -49 -12z"/>
<path d="M2971 226 l-32 -33 46 -13 c46 -13 47 -13 78 18 l31 31 -25 9 c-61
23 -64 23 -98 -12z"/>
<path d="M2096 211 l-40 -17 38 -29 c35 -27 39 -27 76 -15 22 7 40 17 40 21 0
9 -59 59 -68 58 -4 0 -25 -8 -46 -18z"/>
<path d="M2801 200 c-19 -16 -33 -31 -30 -33 2 -2 22 -11 44 -19 40 -16 41
-16 74 14 18 16 31 31 29 33 -3 3 -79 35 -82 35 0 -1 -16 -14 -35 -30z"/>
<path d="M2277 189 l-39 -20 38 -29 38 -28 41 20 c22 11 41 21 43 23 3 3 -72
55 -79 55 -2 -1 -21 -10 -42 -21z"/>
<path d="M2627 183 l-39 -27 43 -22 43 -22 38 26 c21 13 38 26 38 28 0 4 -77
44 -82 43 -2 0 -20 -12 -41 -26z"/>
<path d="M2453 180 c-18 -11 -33 -22 -33 -24 0 -2 16 -14 36 -26 35 -22 36
-22 70 -4 48 26 49 29 10 53 -41 26 -43 26 -83 1z"/>
</g>
</svg>
